<svg id="Layer_1" xmlns="http://www.w3.org/2000/svg" viewBox="0 0 100 100"><style>.st0{fill-rule:evenodd;clip-rule:evenodd;fill:#fff}.st1,.st2{fill:#114470}.st2,.st3{fill-rule:evenodd;clip-rule:evenodd}.st3{fill:none;stroke:#114470;stroke-miterlimit:10}</style><circle class="st0" cx="50" cy="50" r="48.7"/><path class="st1" d="M50 99.5C22.7 99.5.5 77.3.5 50S22.7.5 50 .5 99.5 22.7 99.5 50 77.3 99.5 50 99.5zm0-97.4C23.6 2.1 2.1 23.6 2.1 50S23.6 97.9 50 97.9 97.9 76.4 97.9 50 76.4 2.1 50 2.1z"/><path class="st1" d="M49.7 61.4c-2.2 0-6.2-.7-9.3-4.7-2-2.5-3.2-5.7-3.8-7.4-.4.3-1 .6-1.5.5-.4 0-.8-.2-1.1-.5-.9-1-2.9-5.5-3.2-8.6-.2-2.2.4-4.1 1.4-5 .5-.4 1.2-.6 1.8-.4.2.1.4.1.6.3v-6.7l.4-6.2 7.8-2.9 7.2.8 7.2-.8 7.8 2.9.4 6.2v6.8l.6-.3c.6-.2 1.2 0 1.8.4 1.1.9 1.6 2.8 1.4 5-.3 3-2.2 7.3-3.2 8.4-.3.3-.7.5-1.1.5-.5 0-1-.2-1.4-.5-.6 1.7-1.8 5.1-3.8 7.6-3.3 4.2-7.4 4.7-9.6 4.7-.2-.1-.3-.1-.4-.1zm.6-1.5zM37.4 46.3l.4 1.4s1.3 4.8 3.8 8.1c2.8 3.6 6.4 4.1 8.3 4.1h.3c2 0 5.4-.5 8.2-4.1 2.5-3.2 3.9-8.2 3.9-8.2l.4-1.4 1 1.1c.4.4 1 .8 1.2.8.7-.8 2.5-4.8 2.8-7.5.2-1.9-.3-3.2-.9-3.7-.2-.2-.3-.1-.3-.1-.4.1-.9 1.3-1 2.3l-1.7-.1V28.8l-.3-5.1-6.5-2.4-7 .7-7-.7-6.5 2.4-.3 5.2V39l-1.6.1c-.1-1-.6-2.2-1-2.3 0 0-.2 0-.3.1-.5.5-1 1.8-.9 3.7.2 2.7 2.1 6.9 2.8 7.7.2 0 .8-.4 1.2-.9l1-1.1zM50 59.9c.1 0 .1 0 0 0 .1 0 .1 0 0 0z"/><path class="st2" d="M64.8 19.3c-4.3-4.9-10.4-7-18.2-6.4S34.1 18.1 33 23.2s0 13.1 0 13.1c.3-.2.6-.3 1-.2.5.1.8.5 1 1l.5 1.9s2.2-11.9 2.9-12.8c.7-.9 4.7-1 11.3 0s12.4 1.9 12.6 2.5 2.4 10.7 2.5 10.4c0-.1.1-.5.2-1.1.2-.8.6-1.7 1.3-1.9.3-.1.5 0 .8.1 0 0 1.9-12-2.3-16.9z"/><path class="st3" d="M38.3 51.9s2.5 9.3 0 12.1c-.9 1.1-2.2 1.9-3.7 2.5C37 72.7 43 77.1 50 77.1s13-4.4 15.4-10.6c-1.6-.7-2.8-1.5-3.7-2.5-2.5-2.8 0-12.1 0-12.1"/><path class="st1" d="M50 99.5c-16.7 0-32.2-8.4-41.4-22.4l-.4-.6.6-.5c4.6-3.5 8.5-4.9 14.9-6.9 1.5-.5 2.8-.9 4.1-1.2 5.1-1.5 8.1-2.4 9.9-4.5 1.8-2.1.5-8.9-.2-11.4l-.3-1.3 1.8.5.2.3c.8 1.8 1.7 3.2 2.4 4.2 2.8 3.6 6.4 4.1 8.3 4.1h.3c1.9 0 5.4-.5 8.2-4.1.8-1 1.6-2.4 2.4-4.2l.2-.3 1.8-.5-.3 1.3c-.7 2.5-2 9.3-.2 11.4 1.8 2.1 4.9 3 9.9 4.5 1.3.4 2.6.8 4.1 1.2 6.5 2 10.3 3.3 14.9 6.9l.6.4-.4.6C82.2 91.1 66.7 99.5 50 99.5zM10.3 76.8C19.3 90 34 97.9 50 97.9S80.7 90 89.7 76.8c-4.1-3.1-7.8-4.3-13.8-6.2-1.5-.5-2.8-.9-4.1-1.2-5.1-1.5-8.5-2.5-10.7-5-1.5-1.7-1.4-5.3-1.1-8.3-.1.2-.3.4-.4.5-3.3 4.2-7.4 4.7-9.6 4.7-2.2 0-6.3-.5-9.6-4.7-.1-.2-.3-.4-.4-.5.4 2.9.5 6.5-1.1 8.3-2.1 2.5-5.5 3.5-10.7 5-1.2.4-2.6.8-4.1 1.2-5.9 1.9-9.7 3.2-13.8 6.2zm40-16.9z"/><path class="st1" d="M91 76.5c-4.5-3.5-8.4-4.8-14.8-6.8-1.5-.5-2.8-.9-4.1-1.2-2.5-.7-4.6-1.3-6.2-2l-.1.3c0 .1-.1.2-.2.4-.4-.2-.8-.4-.7-.3-2.5 6-8.4 10-14.9 10s-12.4-4-14.9-10c.1-.1-.3.2-.7.3-.1-.1-.1-.2-.2-.4l-.1-.3c-1.6.7-3.7 1.3-6.2 2-1.2.4-2.6.8-4.1 1.2-6.4 2-10.3 3.3-14.8 6.8l.2.6C18.8 90.8 33.4 98.7 50 98.7S81.7 90.9 90.8 77l.2-.5z"/></svg>