<svg id="Layer_1" xmlns="http://www.w3.org/2000/svg" viewBox="0 0 100 100"><style>.st0{fill-rule:evenodd;clip-rule:evenodd;fill:#fff}.st1,.st2{fill:#114470}.st2{fill-rule:evenodd;clip-rule:evenodd}</style><circle class="st0" cx="50" cy="50" r="48.7"/><path class="st1" d="M50 99.5C22.7 99.5.5 77.3.5 50S22.7.5 50 .5 99.5 22.7 99.5 50 77.3 99.5 50 99.5zm0-97.4C23.6 2.1 2.1 23.6 2.1 50S23.6 97.9 50 97.9 97.9 76.4 97.9 50 76.4 2.1 50 2.1z"/><path class="st2" d="M50 98.7c15.3 0 28.9-7 37.8-18-.8-3.2-2.5-6.2-5.2-7.7-.2-.1-.4-.2-.7-.4-.1 0-.2-.1-.3-.1-.2-.1-.4-.2-.5-.3-.1 0-.2-.1-.3-.1l-.6-.3c-.1-.1-.2-.1-.3-.2l-.6-.3c-.1-.1-.2-.1-.4-.2s-.4-.2-.7-.3c-.1 0-.2-.1-.3-.1-.2-.1-.5-.2-.7-.3-.1 0-.2-.1-.3-.1-.3-.1-.5-.2-.8-.3-.1 0-.2-.1-.3-.1-.3-.1-.6-.2-.9-.4h-.1c-2.8-1.1-5.6-2.1-7.7-2.9-3 7.7-8.9 12.9-15.7 12.9-6.8 0-12.7-5.2-15.7-12.9-2.1.8-4.9 1.9-7.7 2.9h-.1c-.3.1-.6.2-.9.4-.1 0-.2.1-.3.1-.3.1-.5.2-.8.3-.1 0-.2.1-.3.1-.3.1-.5.2-.7.3-.1 0-.2.1-.3.1-.2.1-.4.2-.7.3-.1.1-.2.1-.4.2l-.6.3c-.1.1-.2.1-.3.2l-.6.3c-.1 0-.2.1-.3.1-.2.1-.4.2-.5.3-.1 0-.2.1-.3.1-.2.1-.5.3-.7.4-3.4 1.9-5.2 6.2-5.6 10.2 8.7 9.5 21.3 15.5 35.4 15.5z"/><path class="st1" d="M50 99.5c-13.7 0-26.9-5.7-36.2-15.8l-.2-.3V83c.4-3.8 2.2-8.6 6-10.8.2-.1.5-.3.7-.4l.3-.1.6-.3.3-.1.6-.3 4.5-1.9 1.1-.4c1.2-.5 2.4-.9 3.6-1.4 1.5-.6 2.9-1.1 4.1-1.6l.7-.3.3.7c3 7.7 8.7 12.4 15 12.4 6.3 0 12-4.8 15-12.4l.3-.7.7.3c1.2.5 2.6 1 4.1 1.6 1.2.4 2.4.9 3.6 1.3l5.6 2.3c.2.1.3.2.5.2l.4.2.6.3.3.1c.3.1.5.3.7.4 2.6 1.5 4.6 4.4 5.6 8.2l.1.4-.2.3C79 92.8 65 99.5 50 99.5zM15.2 82.9c9 9.5 21.7 15 34.8 15 14.3 0 27.8-6.3 36.9-17.4-.9-3.1-2.6-5.6-4.7-6.8-.2-.1-.4-.2-.7-.4l-.2-.1c-.2-.1-.3-.2-.5-.2l-.4-.2c-.2-.1-.3-.1-.5-.2l-4.4-1.8-1.1-.4c-1.2-.5-2.4-.9-3.5-1.3-1.2-.5-2.4-.9-3.4-1.3-3.3 7.9-9.4 12.7-16.2 12.7s-12.9-4.8-16.2-12.7c-1 .4-2.2.8-3.4 1.3-1.2.4-9.1 3.6-9.1 3.6-.2.1-.3.2-.5.2l-.3.1c-.2.1-.4.2-.5.3l-.2.1c-.2.1-.5.2-.7.4-3.2 1.7-4.8 5.8-5.2 9.1z"/><path class="st2" d="M70.2 32.8c-2.3-13.9-9.1-24.2-21.6-20.6 0 0-6.5-1.3-11.1 6.1-4.6 7.4-6.6 19.2-6.3 28.1.3 8.9 1.6 12.3 1.6 12.3s2.5-2.2 5.7-3.1c.9-.3 2.5-.6 4.4-.8l-.6-10.2 18.3 1.6-.9 8.9c7.7 1.6 8.7 2.2 8.7 2.2s4.1-10.6 1.8-24.5z"/><path class="st0" d="M64.4 35.7v-3L63 30.2s-5.7-2.1-9.6-3.6c-.4-.9-.6-1.4-.6-1.4s-.6.2-1.5.6c-.9-.3-1.4-.6-1.5-.6 0 0-.3.5-.6 1.4-3.9 1.5-9.6 3.6-9.6 3.6l-1.5 2.4-.1 2.3c-.1.8 0 1.6.1 2.5.1.8.1 1.5.2 2.1.2 2.8.9 5.5 2.1 8 .6 1.2 1.3 2.5 2.1 3.6 2.3 2.9 5.7 5.3 8.7 5.3h.1c3.1 0 6.4-2.4 8.7-5.3.5-.6.9-1.3 1.4-2 1.9-3.3 2.8-7 2.9-10.8 0-.4 0-.9.1-1.3v-1.3z"/><path class="st1" d="M51.3 57.1h-.1c-3.6 0-7.2-2.9-9.3-5.6-.8-1-1.5-2.2-2.2-3.7-1.2-2.5-1.9-5.3-2.2-8.2v-.3c-.1-.6-.1-1.2-.2-1.8-.1-.9-.1-1.8-.1-2.6l.2-2.4 1.7-2.8.3-.1s5.4-2 9.3-3.5c.6-1.4.6-1.4 1.1-1.5l.4-.1.2.2c.2.1.5.2 1 .4.5-.2.8-.3 1-.4l.2-.2.4.1c.4.1.5.1 1.1 1.5 3.9 1.5 9.3 3.5 9.3 3.5l.3.1 1.7 2.9v3.3c0 .4 0 .8-.1 1.2 0 .4 0 .8-.1 1.3-.1 4-1.1 7.9-3 11.1-.5.8-.9 1.5-1.4 2.1-2.2 2.6-5.8 5.5-9.5 5.5.1 0 0 0 0 0zM38.9 32.9l-.1 2c-.1.8 0 1.5.1 2.3.1.7.1 1.3.2 1.9v.3c.2 2.7.9 5.3 2 7.7.7 1.4 1.3 2.5 2 3.4 2.4 3 5.6 5 8.1 5h.1c2.6 0 5.7-2 8.1-5 .4-.5.9-1.2 1.3-1.9 1.7-3 2.7-6.6 2.8-10.4 0-.5 0-.9.1-1.3 0-.4.1-.8.1-1.1V33l-1.2-2c-1.1-.4-5.9-2.2-9.3-3.5l-.3-.1-.1-.3c-.1-.3-.2-.5-.3-.7-.2.1-.5.2-.8.3l-.3.1-.4-.2c-.3-.1-.6-.2-.8-.3-.1.2-.2.4-.3.7l-.1.3-.3.1c-3.4 1.3-8.2 3.1-9.3 3.5l-1.3 2z"/><path class="st2" d="M36.1 30.6c-.1.2 2.1 2.7 2.1 2.7h26.5l.8-5.7-7.1-7.4s-15.7 1.8-16 2.1-6.3 8.3-6.3 8.3z"/><path class="st1" d="M51.3 80.4c-6.9 0-13.2-5.1-16.4-13.4l-.3-.7 1.3-.5c4.9-2 5.9-4.4 6.2-5.4.4-1.5 0-7.2-.2-9.2l1.6-.1c.1.8.6 7.7.2 9.7-.6 2.5-3.1 4.8-7 6.4 3.1 7.2 8.6 11.7 14.7 11.7S62.9 74.3 66 67.1c-3.9-1.6-6.4-3.9-7-6.4-.5-2 .1-8.9.2-9.7l1.6.1c-.2 2.1-.6 7.7-.2 9.2.2 1 1.3 3.4 6.2 5.4l1.3.5-.3.7c-3.3 8.3-9.6 13.5-16.5 13.5z"/></svg>