<svg xmlns="http://www.w3.org/2000/svg" width="327.957" height="188.976" viewBox="0 0 3416 1969" shape-rendering="geometricPrecision" text-rendering="geometricPrecision" image-rendering="optimizeQuality" fill-rule="evenodd" clip-rule="evenodd"><defs><style>.fil0{fill:#4c392f}.fil1{fill:#54301a}.fil2{fill:#fff}</style></defs><g id="Layer_x0020_1"><g id="_758008752"><path class="fil0" d="M1773 507c-19-44-69-69-74-107-9-67 50-81 108-68-8-34-57-60-85-57-70 6-52 26-116-10 3 19-1 17 16 30l23 12c2 1 4 3 5 3 1 1 3 2 4 4-69 38-57 108-39 194-73-10-131-73-144-150-17-103 54-148 63-233-18 15-11 17-44 39-45 30-83 59-112 110-51 88-22 163 12 241-22-16-33-37-45-64s-12-68-24-91c-83 76 17 198 53 236l-83-66c-1-2-3-3-4-4l-10-9c1 50 10 75 37 107l78 67c-49-9-61-27-95-45 8 89 97 88 131 117l-56-2c41 55 214 98 257-83-30 15-55 64-148 55 28-28 58-22 68-54-55 8-137 19-168-34 45 9 103 17 136-15-49-27-93 0-129-62 38 11 94 25 129 1-32-25-62-21-99-90-32-61-19-108-2-169l10 46c6 44 19 83 46 117 25 32 86 64 135 81l-12 11-4 4c-10 7-8 3-19 14l38 9c-22 16-33 18-41 43l48-10c-12 18-21 18-24 44l63-17-32 101h158l-41-100 58 17c-3-29-13-21-26-45l53 11c-9-31-23-25-44-45l43-4c-14-18-2-7-19-16-8-4-8-3-14-7-11-7-4-1-13-10 129-57 189-72 197-242 31 36 27 115 6 162-29 63-69 71-101 95 37 24 88 10 129-1-9 22-24 31-53 43-12 5-21 7-37 10-2 0-14 2-17 3-24 4-5-3-22 6 31 30 91 25 135 14-23 54-122 45-167 35 13 33 40 28 68 54-75 7-108-29-145-55 12 61 50 93 104 113 57 21 132 10 168-43l-91 3c81-4 151-49 162-122-35 15-42 36-94 48 35-32 51-34 78-73 19-29 40-70 26-108-37 35-16 44-76 76 33-62 107-155 24-230-12 76-14 121-62 166 116-271-93-319-142-372-18-18 1-10-18-17 6 77 85 123 75 225-7 80-73 159-153 163zm-43-214h6c2-1 9-1 11-1 3 0 2 0 4 1s-2 5 3 6c1 0 1 1 3 0 3 0 2 4 2 5-1 4-8 2-11 2-1 0-8 0-8-1-1-2-2-2-1-4s-2-3-3-4-3-2-5-3l-1-1z"/><path class="fil0" d="M1386 803l-100 259h220l30-83c-19-12-26-14-34-38l18-10c49-24 26-17 50-49h284c22 42 21 26 63 45-6 53-31 20-13 71 30 81-8 63 235 63-6-54-86-206-105-271-59 21-87 47-162 19-96-35 1-34-159-34-158 0-74 1-156 37-74 33-105 12-171-9zm435-500l1 48c-72-27-175 6-35 135 42-6 73-36 90-66L1709 0c-13 16-92 205-94 227-9 75 100 1 161 42 16 11 23 20 45 34z"/><path class="fil0" d="M1809 933c-29-5-36-11-54-23l-2 48c-9-8-9-12-22-13-9 27-7 25-26 36l-17-34c-15-3 13-11-24 10l2-49c-20 11-22 16-48 25-11-16-1 5 0-13v-17c-34 0-29-4-54 17-10 9-33 20-39 34 39 23 61 17 106 0l-12 58c27-1 34-8 53-16 10 23 20 37 35 51 25-16 24-25 39-51l51 19-12-60c49 13 65 29 109-2-13-25 3 8-43-36-22-21-25-14-60-13l18 29zm-279-491c16 15 29 27 56 36-15-120-4-91 31-165l-24-22-63 151z"/><path class="fil1" d="M1844 1902v66h148l2-131 148-2c20 45 51 91 75 133h147c-7-31-69-117-85-153 33-36 53-24 78-88 48-124 5-294-209-294h-304v469zm-1201 65l150 1v-133h148l74 133 147 1c-10-42-64-107-85-154 2-2 4-5 5-4 0 1 3-3 4-3l8-7c10-6 12-6 21-13 71-57 86-241-18-315-81-57-335-45-452-40l-2 534zm-643 1h134l40-98h250l44 98h132c-5-36-286-694-304-734-13 17-292 708-296 734zm2412 1l134-1 40-98h249l44 98h133l-304-735c-13 16-291 697-296 736zm-1205-1h134l41-99 247 1 45 98h134c-12-48-52-130-73-180l-235-547c-1-2-3-3-5-5-30 106-100 253-144 363-24 62-48 119-73 183-16 40-67 152-71 186zm1704-485l2 72h182v412h136c5-78-9-366 6-413h179v-117l-505-2v48z"/><path class="fil2" d="M791 1713c40 4 108 4 148 2 52-3 80-27 79-83-3-102-140-83-224-76l-3 157zm1203 0c36 4 110 4 147 1 56-3 79-23 78-82-3-98-109-83-222-77l-3 158zm-1777 43l160 1c-11-45-62-167-81-205l-79 204zm2411 0l160 1c-14-60-57-149-80-206l-80 205zm-1203 0l158 1-80-207c-25 57-64 148-78 206z"/></g></g></svg>