<svg xmlns="http://www.w3.org/2000/svg" width="599.302" height="151.182" viewBox="0 0 6242 1575" shape-rendering="geometricPrecision" text-rendering="geometricPrecision" image-rendering="optimizeQuality" fill-rule="evenodd" clip-rule="evenodd"><defs><style>.fil0{fill:#ee353c}.fil1{fill:url(#id0)}</style><linearGradient id="id0" gradientUnits="userSpaceOnUse" x1="4276.83" y1="767.94" x2="4884.95" y2="697.408"><stop offset="0" stop-color="#ed3237"/><stop offset="1" stop-color="#7e0001"/></linearGradient></defs><g id="Layer_x0020_1"><path class="fil0" d="M3365 751c-22 19-53 30-88 30-56 0-85-16-100-51-32 37-71 51-128 51-86 0-145-45-145-122 0-84 75-125 176-156l7-2c51-16 91-33 91-76v-22c0-65-30-98-84-98-43 0-60 19-65 63-3 22-13 49-45 49-28 0-45-16-45-41 0-57 65-97 162-97 120 0 166 48 166 145v239c0 63 11 85 40 85 15 0 30-5 45-15l13 18zm-186-136V488c-19 11-37 20-54 29-72 38-126 69-126 145 0 50 34 88 80 88 64 0 100-49 100-135zM230 441h234L348 148 230 441zm246 30H219l-21 51c-25 62-40 117-40 146 0 48 34 69 99 78v19H0v-20c76-5 111-101 194-303L375 0h24l228 561c47 116 73 181 144 184v20H460v-20c61-4 92-20 92-58 0-20-10-50-27-92l-49-124zm762-175h-167v21h9c70 0 72 23 72 146v139c0 44-2 75-25 102-23 28-58 45-93 45-63 0-96-44-96-129V296H767v21h9c70 0 72 23 72 146v153c0 106 45 165 156 165 62 0 104-18 148-58v53l26-3c46-7 90-13 132-18h3v-18h-3c-54-4-69-24-69-94V296h-3zm181 112c0 86 71 115 146 157 51 29 87 59 87 107 0 47-32 81-81 81-72 0-114-38-142-144l-1-2h-15v167h14l1-1c11-16 20-22 31-22 5 0 12 3 22 7 20 10 53 23 97 23 92 0 157-61 157-145 0-40-16-72-43-99-24-24-62-46-104-68-60-33-99-53-99-100 0-39 32-63 73-63 58 0 101 42 119 122v2h15V287h-15v2c-5 12-11 17-21 17-5 0-12-4-21-8-19-8-47-19-81-19-79 0-139 54-139 129zm705 335c-24 25-59 38-104 38-88 0-129-39-129-117 0-73 4-341 4-341h-60v-26h2c64-11 99-47 125-127v-2h23l-1 128h121v27h-121l-3 309v13c0 65 19 102 72 102 23 0 40-6 56-22l15 18zm196-461c-46 15-95 27-149 35h-2v17l3 1c58 4 74 24 74 95v167c0 124 0 147-72 147h-7v21h262v-21h-9c-43 0-61-7-71-26-12-21-12-60-12-118v-95c0-110 41-182 80-182 19 0 28 12 38 27s22 33 47 33c26 0 44-17 44-42 0-38-34-62-83-62-53 0-98 28-129 90 0-35-1-58-4-83v-2l-9-3-1 1zm324-181c0 31 22 53 53 53 32 0 54-22 54-53 0-29-25-54-54-54-28 0-53 25-53 54zm96 180c-49 14-100 25-161 35l-3 1v17h3c58 4 74 25 74 95v168c0 124 0 147-72 147h-7v21h250v-21h-7c-71 0-73-21-73-147V280l-4 1zm821 1c-46 15-95 27-149 35h-2v17l3 1c58 4 74 24 74 95v167c0 124 0 147-72 147h-7v21h250v-21h-7c-71 0-74-21-74-147V451c0-36 2-67 24-93 23-28 58-45 93-45 64 0 96 44 96 129v155c0 126-2 147-72 147h-7v21h250v-21h-7c-71 0-74-23-74-147V441c0-102-42-162-151-162-62 0-106 17-152 59l-6-54-10-3v1z"/><g id="_740959344"><path class="fil0" d="M4514 1241c394-345 405-476 376-534-5-9-10-16-15-23-20-22-61-27-95-27-31 0-57 4-57 4 33-7 83-16 83-16 643-126 1436-184 1436-184v1c0 1-1 1-2 2-56 17-491 171-1043 460-326 171-693 470-831 603l-299 48c128-84 297-202 447-334z"/><path class="fil1" d="M4724 661c96-13 146 2 166 46-150-3-323 88-354 100l-273-41 461-105z"/></g></g></svg>