<svg xmlns="http://www.w3.org/2000/svg" width="466.666" height="190.157" viewBox="0 0 4861 1981" shape-rendering="geometricPrecision" text-rendering="geometricPrecision" image-rendering="optimizeQuality" fill-rule="evenodd" clip-rule="evenodd"><defs><style>.fil0{fill:#9e061f}.fil1{fill:#f78222}.fil2{fill:#fefefe}.fil3,.fil4{fill:#211f47;fill-rule:nonzero}.fil4{fill:#2f2b54}</style></defs><g id="Layer_x0020_1"><g id="_758023504"><path class="fil0" d="M2108 551c5 19 83 57 144 147 42 63 73 144 73 231 94-29 210-104 249-187l-183-62c18-18 394-237 410-241l70 425-170-56c-33 52-113 126-165 163-112 79-125 65-230 98-5 34-21 52-17 75 98 81 167 140 309 177 370 97 735-108 843-443 6-20 9-32 13-49l15-50V569c-1-1-2-4-2-5l-8-27c-32-134-99-261-201-353C3065 10 2887 19 2855 0h-146c-1 1-4 1-5 2-1 0-4 1-5 2l-53 10c-259 47-503 277-538 537z"/><path class="fil1" d="M1392 884v121c12 21 15 74 50 143 59 116 170 205 295 238l37 12h179c33-21 117-25 202-96 24-20 51-45 73-72 8-10 53-81 61-86-4-23 12-41 17-75-147 8-335-35-456-122-19-13-7-1-17-18 140 26 358 47 492 0 0-87-31-168-73-231-61-90-139-128-144-147-39-14-67-34-113-46-232-63-479 46-569 270-13 33-25 93-34 109z"/><path class="fil2" d="M2325 929c-134 47-352 26-492 0 10 17-2 5 17 18 121 87 309 130 456 122 105-33 118-19 230-98 52-37 132-111 165-163l170 56-70-425c-16 4-392 223-410 241l183 62c-39 83-155 158-249 187z"/><path class="fil3" d="M487 1899l-31-11 1-1 1-1 1-1 1-2 1-1 1-1 1-1 1-2 1-1 1-1 1-1 1-2 1-1v-1l1-2 1-1 1-2v-1l1-1 1-2v-1l1-2v-1l1-2 1-1v-2l1-1v-3l1-2v-2l1-1h36v2l-1 2v1l-1 2v2l-1 2-1 2v2l-1 2-1 1v2l-1 2-1 2-1 2-1 1-1 2v2l-1 1-1 2-1 2-2 2-1 1-1 2-1 2-1 1-1 2-2 1-1 2-1 2-2 1-1 2-1 1zm-57 40l-18-19 1-1 2-1 2-1 1-1h2l1-1 2-1 1-1 2-1 1-1 2-1 1-1h2l1-1 2-1 1-1 1-1 2-1 1-1 1-1 2-1 1-1 1-2 2-1 1-1 1-1 1-1 2-1 1-1 1-1 1-2 1-1 31 11-2 2-1 1-2 2-1 1-2 2-1 1-2 1-2 2-1 1-2 1-1 2-2 1-2 1-1 2-2 1-2 1-2 1-2 2-1 1-2 1-2 1-2 1-2 2-2 1-2 1-2 1-2 1-2 1-2 1-2 1-2 1-2 1zm-82 26l-5-23 3-1h2l2-1h2l3-1h2l2-1h2l2-1h3l2-1 2-1h2l2-1h2l3-1 2-1 2-1h2l2-1 2-1 2-1h2l2-1 2-1 3-1 2-1 2-1 2-1h2l2-1 2-1 18 19-2 1-3 1-2 1-3 1-2 2-2 1-3 1-2 1-3 1h-2l-3 1-2 1-3 1-2 1-3 1-3 1-2 1h-3l-2 1-3 1-2 1h-3l-3 1-2 1h-3l-3 1-2 1h-3l-3 1h-2l-3 1h-3zm-103 8l5-25h37l3-1h12l3-1h8l3-1h8l3-1h5l2-1h3l2-1h4l5 23-2 1h-3l-3 1h-3l-3 1h-5l-3 1h-6l-3 1h-7l-3 1h-9l-4 1h-20l-4 1h-25zm-222-25h227l-5 25H18l-15-12 20-13zm-5 25H0l3-12 15 12zm101-394l-80 382H3l79-382 21-12 16 12zm-37 0l3-12h18l-21 12zm216 12H98l5-24h200l-5 24zm101-21l-10 24h-6l-2-1h-13l-3-1h-25l-3-1h-39l5-24h58l3 1h17l2 1h12l2 1h2zm64 15l-22 21h-2l-1-1h-2l-1-1h-2l-1-1h-2l-1-1h-2l-1-1h-2l-1-1h-2l-2-1h-3l-1-1h-4l-1-1h-4l-1-1h-5l-2-1h-5l-2-1h-2l10-24h5l2 1h6l2 1h4l2 1h2l3 1h4l2 1h2l1 1h2l2 1h2l2 1h2l2 1h2l2 1 2 1h2l1 1 2 1h2l2 1 2 1zm45 34l-34 12-1-1v-1l-1-1-1-1v-1l-1-1h-1l-1-1v-1l-1-1-1-1-1-1h-1l-1-1-1-1-1-1-1-1h-1l-1-1-1-1-1-1h-1l-2-1-1-1h-1l-2-1-1-1h-1l-2-1-1-1h-2l-1-1 22-21h2l2 1 1 1 2 1 2 1 2 1 2 1h1l2 1 2 1 1 1 2 1 2 1 1 1 2 1 1 1 2 2 1 1 1 1 2 1 1 1 1 1 1 1 1 2 2 1 1 1 1 1 1 2 1 1v1l1 2 1 1zm7 49h-36v-3l1-1v-17l-1-2v-3l-1-1v-2l-1-1v-1l-1-1v-1l-1-1v-1l-1-1v-1l34-12 1 1 1 2v1l1 1 1 2v1l1 2v1l1 2v1l1 1v2l1 1v5l1 2v15l-1 2v5l-1 2zm-35 56l-28-13 1-2 2-1 1-1 1-1 2-1 1-2 1-1 1-1 1-1 1-2 1-1 1-1 1-1 1-2 1-1 1-1v-2l1-1 1-1 1-2v-1l1-2 1-1v-1l1-2v-1l1-2v-1l1-2v-1l1-2v-1h36v1l-1 2v2l-1 2v2l-1 2-1 2v2l-1 2-1 1-1 2-1 2-1 2-1 2-1 1-1 2-1 2-1 2-1 2-1 1-2 2-1 2-2 1-1 2-1 2-2 1-2 2-1 2-2 1-2 2-1 1-2 2zm-60 25h-36l14-11 2-1h2l2-1h2l2-1 2-1h2l2-1 1-1 2-1h2l2-1 2-1 1-1h2l2-1 2-1 1-1 2-1 1-1 2-1 2-1 1-1 2-1 1-1 2-1 1-1 2-1 1-1 1-1 2-1 1-1 28 13-2 1-2 2-2 1-1 2-2 1-2 2-2 1-2 2-2 1-3 1-2 2-2 1-2 1-2 1-3 1-2 2-2 1-3 1-2 1-2 1-3 1-2 1-3 1-2 1-3 1-2 1-3 1-2 1h-3l-3 1-2 1-3 1 13-12zm-36 0l2-8 12-3-14 11zm0 2v-2h36v2l-25 12-11-12zm11 12l-14-2 3-10 11 12zm99 10l-30 17-1-1-2-1-1-1-2-2-2-1-1-1-2-1-2-1-2-1-1-1-2-1-2-1-2-1-2-1-2-1h-2l-3-1-2-1-2-1-2-1h-3l-2-1-2-1h-3l-2-1-3-1h-3l-2-1h-3l-3-1h-3l-3-1 13-24 3 1h4l3 1 3 1h4l3 1 3 1 3 1h3l3 1 3 1 3 1 3 1 3 1 3 1 2 1 3 1 3 1 2 1 3 1 2 2 3 1 2 1 2 2 3 1 2 1 2 2 2 1 2 2 2 1 2 2 2 1zm22 71h-36v-5l1-2v-17l-1-2v-4l-1-1v-2l-1-1-1-2v-2l-1-1-1-2-1-1-1-1-1-2-1-1-1-2-1-1-1-1-1-1-2-2-1-1 30-17 2 2 2 2 2 2 1 1 2 2 2 2 1 2 1 2 2 2 1 2 1 2 1 2 1 2 1 2 1 3v2l1 2v2l1 3v2l1 2v17l-1 3v2l-1 3v3zm-188-171l35-11v1l1 1v1l1 1v1l1 1v3l1 1v15h-37v-1h1v-5l-1-1v-3l-1-1v-2h-1v-1zm-11-8l19-23 1 1h3l1 1h1l1 1h1l1 1h1l1 1h1l1 1 1 1h1l1 1h1l1 1v1h1l1 1 1 1 1 1 1 1v1h1l1 1v1l1 1v1h1v1l-35 11v-1h-1v-1h-1v-1l-1-1h-1v-1h-1v-1h-2v-1h-2v-1h-2zm-26-4l6-24h14l1 1h7l1 1h5l1 1h4l1 1h2l1 1h2l-19 23h-1v-1h-4v-1h-5v-1h-10l-1-1h-5zm-56 0l5-25h42l1 1h14l-6 24h-56zm-5-25h10l-5 25h-10l-16-12 21-13zm-21 13l3-13h18l-21 13zm-17 81l17-81h37l-17 81-21 12-16-12zm16 12h-18l2-12 16 12zm18 0h-18l5-25h18l-5 25zm55-25l-3 24h-7l-1 1h-44l5-25h50zm24-5l11 23h-2l-1 1h-3l-1 1h-2l-2 1h-3l-1 1h-5l-2 1h-5l-2 1h-9l3-24h4v-1h7l1-1h4l1-1h3l1-1h3v-1zm17-8l31 10-1 1-1 1-1 1-1 1-1 1-1 1h-1l-1 1-1 1-1 1h-1l-1 1-2 1-1 1h-1l-1 1h-1l-1 1-2 1h-1l-1 1h-2l-1 1h-1l-1 1h-2l-1 1h-2l-1 1h-1l-2 1-11-23h3l1-1h2v-1h2l1-1h1l1-1h1v-1h2v-1h1v-1h1v-1h1zm8-17h37v1h-1v3l-1 1v2l-1 1v2h-1v2l-1 1v1l-1 1v1h-1v1l-1 1v1l-1 1v1h-1v1l-1 1v1h-1l-1 1v1l-1 1-31-10v-1h1v-1l1-1 1-1v-1h1v-1l1-1v-1l1-1v-2h1v-3h1v-3zm1 135l32-15 1 1 1 1v1l1 1 1 1v1l1 1v1l1 1v2l1 1v2l1 1v18l-1 1v1h-36v-5l1-1v-5h-1v-4l-1-1v-1l-1-1v-1l-1-1zm-22-11l18-23h1l2 1h3l1 1h1l2 1h1l1 1h2l1 1h1l2 1h1l1 1 1 1h1l1 1h1l2 1 1 1 1 1h1l1 1 1 1 1 1 1 1 1 1 1 1h1v1l-32 15-1-1v-1h-1l-1-1-1-1h-1v-1h-1l-1-1h-1l-1-1h-1l-1-1h-1l-1-1h-3v-1h-2l-1-1h-3zm-28-3l6-25h7l1 1h13l1 1h7l1 1h4l1 1h3l1 1h1l-18 23-1-1h-4l-1-1h-8l-1-1h-13zm-61-1l6-24h61l-6 25h-38l-2-1h-21zm-21-24h27l-6 24h-26l-15-12 20-12zm-20 12l2-12h18l-20 12zm-20 96l20-96h36l-20 96-21 12-15-12zm15 12h-18l3-12 15 12zm8 0h-8l5-25h8l-5 25zm81-25l-4 25h-77l5-25h76zm38-6l10 23h-2l-1 1h-4l-1 1h-4l-1 1h-2l-1 1h-5l-2 1h-5l-1 1h-7l-1 1h-13l-2 1 4-25h8l1-1h7l1-1h5l1-1h5l1-1h3l1-1h3l1-1h1zm22-11l29 12v1l-1 1h-1l-2 1-1 1-1 1-1 1-1 1h-1l-1 1-1 1-2 1-1 1h-1l-1 1-2 1h-1l-1 1-2 1h-1l-2 1h-1l-1 1-2 1h-1l-2 1h-1l-2 1h-1l-2 1h-1l-2 1-10-23h2l1-1h2l1-1h1l1-1h2v-1h2l1-1h1l1-1h1v-1h2v-1h1v-1h1l1-1 1-1zm11-19h36v2l-1 1v2l-1 1v2l-1 1v1l-1 1v2l-1 1v1l-1 1-1 1v1l-1 1v1l-1 1-1 1v1l-1 1-1 1h-1v1l-1 1-1 1-1 1-1 1-1 1-29-12 1-1 1-1 1-1v-1h1v-1h1v-1l1-1v-1h1v-2l1-1v-1h1v-2l1-1v-3h1v-1z"/><path id="1" class="fil3" d="M600 1940l28-18 3 2 3 2 3 2 4 2 3 2 4 2 4 1 4 2 4 1 4 2 4 1 4 2 5 1 4 1 5 1 5 1 4 2h5l6 1 5 1 5 1 6 1h6l5 1 6 1h12l7 1h26l-5 25h-15l-7-1h-14l-6-1h-7l-7-1h-6l-7-1-6-1-6-1-6-1-6-1-6-1-5-1-6-1-5-2-6-1-5-2-5-1-5-2-5-2-5-2-4-2-5-2-4-2-4-2-4-2-5-3-3-2-4-3zm-43-117h36v4l-1 4-1 4v8l-1 4v7l1 4v7l1 3 1 4v3l1 3 1 3 2 3 1 3 1 3 2 3 1 3 2 2 2 3 2 3 2 2 2 3 3 2 2 2 3 3 2 2 3 2 3 2-28 18-4-2-3-3-4-3-3-2-3-3-3-3-2-3-3-4-3-3-2-3-2-3-2-4-2-3-2-4-1-3-1-4-2-4-1-4-1-4-1-3v-4l-1-4v-26l1-5v-4l1-5 1-4zm87-244l-51 244h-36l51-244 21-12 15 12zm-36 0l2-12h19l-21 12zm158 12H624l5-24h142l16 12-21 12zm5-24h18l-2 12-16-12zm-70 250l49-238h37l-50 238h-36zm44 52l-32 15-2-2-1-2-1-1-1-2-2-2-1-1-1-2v-2l-1-2-1-2-1-1v-2l-1-2v-2l-1-2v-5l-1-2v-18l1-2v-5l1-3v-3l1-2h36v2l-1 2v3l-1 2v22l1 2v3l1 2v1l1 1v2l1 1v1l1 1 1 1v2l1 1 1 1 1 1 1 1zm54 14l-5 25h-10l-3-1h-10l-3-1h-6l-3-1h-3l-2-1-3-1h-3l-2-1-3-1-3-1h-2l-2-1-3-1-2-1-2-1-2-2-2-1-2-1-2-1-2-2-2-1-1-1-2-2-1-1 32-15 1 1 1 1 1 1 1 1h1l1 1 2 1h1l1 1 1 1h2l1 1h2l1 1h2l1 1h2l2 1h4l2 1h6l3 1h15zm61-14l25 16-2 1-3 1-2 2-2 1-3 1-2 2-3 1-2 1-3 1-2 1-3 1-3 1-2 1-3 1-3 1h-3l-3 1-3 1h-3l-3 1h-3l-3 1h-6l-3 1h-10l-3 1h-10l5-25h16l2-1h7l2-1h4l2-1h2l2-1h2l1-1h2l2-1h1l2-1h2l1-1 2-1h1l1-1 2-1 1-1h1l2-1 1-1zm30-52h36l-1 3v2l-1 3-1 2v3l-1 2-1 3-1 2-1 3-1 2-1 2-1 3-1 2-1 2-1 2-1 3-2 2-1 2-1 2-2 2-1 2-2 2-1 1-2 2-2 2-2 2-1 2-2 1-2 2-2 2-2 1-2 2-25-16 1-1 1-1 2-1 1-1 1-1 1-1 1-1 1-1 1-2 1-1 2-1 1-2 1-1 1-1 1-2 1-2 1-1v-2l1-2 1-2 1-1 1-2 1-2v-2l1-2 1-2 1-3v-2l1-2v-2l1-3 1-2zm86-238l-50 238h-36l49-238 21-12 16 12zm-37 0l3-12h18l-21 12zm158 12H955l5-24h142l16 12-21 12zm5-24h18l-2 12-16-12zm-71 255l51-243h36l-51 243h-36zm-54 118l-21-18 4-2 3-3 4-2 3-2 4-3 3-2 3-2 3-3 3-3 3-2 3-3 3-3 2-3 3-3 2-3 3-3 2-3 2-3 2-3 2-3 2-4 2-3 2-4 2-3 1-4 2-4 1-4 1-3 2-4 1-4 1-5 1-4h36l-1 5-1 4-1 5-2 4-1 5-2 4-1 4-2 5-2 4-2 4-2 4-3 4-2 4-3 3-2 4-3 4-3 4-3 3-3 4-3 3-3 4-4 3-3 3-4 3-4 4-4 3-4 3-4 3-4 3-5 2-4 3-5 3zm-198 41l5-25h27l7-1h7l6-1h6l6-1h6l6-1 6-1 6-1 5-1 6-1 5-1 6-1 5-1 5-1 5-2 5-1 5-1 4-2 5-1 4-2 5-2 4-2 4-1 4-2 4-2 4-2 4-2 21 18-5 2-5 3-5 2-5 2-5 3-5 2-5 2-6 2-5 2-6 2-6 1-5 2-6 2-6 1-6 1-7 2-6 1-6 1-7 1-6 1-7 1-6 1-7 1h-7l-7 1h-7l-7 1h-15l-7 1h-15z"/><path id="2" class="fil3" d="M1183 1971l14-24 3 1h6l3 1h3l2 1h4l3 1h6l3 1h6l4 1h10l3 1h14l4 1h34l-5 25h-21l-4-1h-23l-4-1h-11l-3-1h-7l-4-1h-7l-3-1h-4l-3-1h-4l-3-1h-3l-3-1h-4l-3-1h-3zm-98-33h36l-8-11h2l3 1 2 1 3 1h2l2 1 3 1 2 1h3l3 1 2 1h3l2 1 3 1h2l3 1 3 1h2l3 1h3l2 1 3 1h3l2 1h3l3 1h3l3 1h2l3 1 3 1h3l-14 24-3-1h-3l-3-1h-3l-3-1-3-1h-3l-3-1h-3l-3-1-2-1h-3l-3-1-3-1h-3l-3-1-2-1h-3l-3-1-3-1h-2l-3-1-3-1-3-1h-2l-3-1-2-1-3-1h-3l-2-1-3-1-2-1-9-11zm9 11l-11-3 2-8 9 11zm46-102l-19 91h-36l19-91 21-12 15 12zm-36 0l3-12h18l-21 12zm28 12h-12l5-24h13l11 3-17 21zm6-24h6l5 3-11-3zm92 38l-18 23-3-1-3-1-4-1-3-1-3-1-3-1-3-1-3-1-3-1-3-1-3-1-3-1-3-1-3-1-2-2-3-1-3-1-3-1-3-2-2-1-3-1-3-2-3-1-2-1-3-2-3-1-2-2-3-1-2-2-3-1-2-2-3-1 28-19 2 1 2 2 2 1 3 1 2 2 2 1 3 1 2 2 2 1 3 1 2 1 3 2 2 1 3 1 2 1 3 1 2 1 3 1 2 1 3 1 3 1 2 1 3 1 2 1 3 1 3 1 3 1 2 1 3 1h3l3 1 3 1zm90 12l-5 25h-16l-4-1h-13l-3-1h-6l-3-1h-4l-3-1h-3l-3-1h-4l-3-1h-3l-3-1h-3l-4-1-3-1h-3l-3-1-3-1h-3l-4-1-3-1-3-1 18-23 2 1 3 1h3l3 1 3 1h3l3 1h2l3 1 3 1h3l3 1h5l3 1h3l3 1h6l2 1h9l3 1h22zm30-1l-1 24h-5l-1 1h-14l-1 1h-13l5-25h18l2-1h10zm28-5l10 22-1 1h-3l-1 1h-2l-1 1h-4l-1 1h-5l-1 1h-5l-1 1h-7l-1 1h-6l1-24h1l1-1h7l1-1h6l1-1h4l1-1h3l1-1h2zm20-9l24 16-1 1h-1l-1 1-1 1h-1l-1 1h-1l-1 1h-1l-1 1h-1l-1 1-1 1h-1l-1 1h-2l-1 1h-1l-1 1h-2l-1 1h-2l-1 1h-1l-1 1h-3l-1 1h-2l-10-22h1v-1h3l1-1h2l1-1h2v-1h2v-1h2l1-1h1l1-1h1v-1h1l1-1zm9-12h36v2l-1 1v1l-1 1v2l-1 1v1l-1 1v1l-1 1v1l-1 1-1 1v1l-1 1-1 1v1h-1l-1 1-1 1-1 1-1 1-1 1h-1l-1 1-1 1-1 1h-1l-1 1-24-16h1v-1h1l1-1v-1h1v-1h1v-1h1v-1l1-1v-1l1-1v-2l1-1zm-7-14l26-19h2l1 1 1 1 1 1 1 1h1l1 1 1 1 1 1 1 1 1 1v1l1 1 1 1v1l1 1v1l1 1v1l1 2v3l1 1v6l-1 1v3h-36v-7h-1v-2h-1v-1h-1v-1l-1-1h-1v-1h-1v-1h-1zm-31-11l14-24h2l1 1h3l2 1h1l2 1h3l1 1h2l1 1h3l1 1h2l1 1h1l2 1h1l1 1h2l1 1 1 1h1l1 1h2l1 1 1 1h1l1 1 1 1-26 19-1-1h-1l-1-1h-1l-1-1h-1l-1-1h-1l-1-1h-2l-1-1h-1l-1-1h-2l-1-1h-3l-1-1h-2l-1-1h-4l-1-1h-2zm-59-10l13-24 2 1h4l2 1h6l1 1h4l2 1h4l2 1h6l2 1h3l2 1h4l2 1h3l2 1h4l2 1h3l-14 24h-2l-2-1h-3l-2-1h-3l-2-1h-5l-2-1h-4l-2-1h-3l-2-1h-6l-2-1h-3l-2-1h-6l-2-1h-4l-2-1zm-61-11l17-24 2 1h1l2 1h3l2 1h2l1 1h4l1 1h4l2 1h3l2 1h3l2 1h4l2 1h3l2 1h6l2 1h4l-13 24h-6l-2-1h-4l-2-1h-4l-2-1h-4l-2-1h-2l-2-1h-3l-2-1h-4l-2-1h-2l-2-1h-3l-2-1h-2l-2-1h-3l-2-1h-2zm-93-47l32-14 2 1 1 2 1 1 2 1 1 2 2 1 2 1 1 2 2 1 2 1 2 1 2 2 2 1 3 1 2 1 2 2 3 1 2 1 3 1 3 1 2 1 3 1 3 1 3 2 3 1 3 1 4 1 3 1 3 1 4 1 3 1h4l-17 24-4-1-4-1-4-2-4-1-3-1-4-1-4-1-3-1-4-2-3-1-4-1-3-1-3-2-3-1-3-2-3-1-3-1-3-2-3-1-2-2-3-2-2-1-3-2-2-1-2-2-3-2-2-2-2-1-2-2-1-2-2-2-2-2zm-17-73h37l-1 2v5l-1 2v18l1 2v4l1 2v2l1 1v2l1 2 1 1v2l1 2 1 1 1 2 1 1 1 2 1 1 1 2 1 1 1 2-32 14-2-2-1-2-2-1-1-2-1-2-1-2-2-3-1-2-1-2-1-2-1-2v-2l-1-2-1-3-1-2v-2l-1-3v-4l-1-3v-17l1-3v-5l1-2v-3zm95-97l18 20-5 2-4 2-4 2-3 2-4 2-4 2-3 2-3 2-3 2-4 2-2 3-3 2-3 2-3 2-2 3-2 2-3 3-2 2-2 2-2 3-2 2-2 3-1 3-2 2-1 3-1 3-2 2-1 3-1 3-1 3v3l-1 3h-37l1-4 1-3 1-4 2-4 1-3 2-4 1-3 2-3 2-4 2-3 2-3 3-4 2-3 3-3 3-3 3-3 3-3 3-3 3-3 4-3 3-3 4-3 4-2 4-3 4-3 4-2 5-3 4-2 5-3 4-2 5-2 5-3zm186-35l-5 24h-12l-6 1h-17l-6 1h-5l-6 1h-5l-6 1-5 1h-5l-5 1-6 1-5 1-5 1-5 1-5 1-5 1-4 2-5 1-5 1-5 2-4 1-5 2-4 1-5 2-4 2-5 1-4 2-4 2-18-20 5-2 5-2 5-2 6-2 5-2 5-2 6-2 5-1 5-2 6-2 5-1 6-2 6-1 5-1 6-1 6-2 6-1 6-1 6-1h6l6-1 6-1 6-1h6l6-1h13l6-1h26zm103 7l-13 24h-3l-3-1h-2l-3-1h-6l-3-1h-6l-3-1h-9l-3-1h-12l-3-1h-21l-3-1h-15l5-24h33l3 1h16l3 1h10l3 1h6l3 1h7l3 1h3l3 1h7l3 1zm97 31h-36l8 11-2-1-2-1h-2l-3-1-2-1h-2l-3-1h-2l-2-1-3-1h-2l-3-1h-2l-3-1-2-1h-3l-2-1h-3l-3-1h-2l-3-1h-3l-2-1h-3l-3-1h-3l-2-1h-3l-3-1h-3l-3-1h-3l13-24h3l3 1h3l3 1h3l3 1h3l3 1h3l3 1h3l3 1 2 1h3l3 1h3l3 1 2 1h3l3 1h3l2 1 3 1 2 1h3l3 1 2 1h3l2 1 3 1 2 1h3l8 12zm-8-12l10 4-2 8-8-12zm-46 99l18-87h36l-18 87-21 12-15-12zm36 0l-3 12h-18l21-12zm-28-12h12l-5 24h-12l-11-3 16-21zm-5 24h-7l-4-3 11 3zm-77-31l18-23 3 1 3 1h2l3 1 3 1 2 1 3 1 3 1 2 1 3 1 2 1 3 1 2 1 3 1 2 1 2 1 3 1 2 1 2 1 2 1 3 1 2 1 2 1 2 1 2 1 2 1 2 2 2 1 2 1 2 1 2 1 2 2-27 18-2-1-2-1-1-1-2-1-2-1-2-1-1-1-2-1-2-1-2-1-2-1-2-1h-2l-2-1-2-1-2-1-2-1-2-1-2-1-2-1-2-1h-2l-3-1-2-1-2-1-3-1h-2l-2-1-3-1-2-1-3-1h-2zm-84-12l5-24h25l4 1h9l3 1h3l3 1h6l3 1h3l3 1h3l3 1h3l3 1 3 1h3l3 1 3 1 3 1h2l3 1 3 1-18 23-3-1-2-1h-3l-2-1-3-1h-2l-3-1h-2l-3-1h-3l-2-1h-3l-2-1h-3l-2-1h-6l-2-1h-6l-2-1h-14l-2-1h-14zm-30 2l-2-25h10l1-1h26l-5 24h-15l-1 1h-12l-1 1h-2 1zm-29 6l-10-23h2l1-1h3l1-1h2l2-1h3l1-1h4l1-1h3l2-1h4l1-1h6l1-1 2 25h-6l-1 1h-4l-1 1h-4l-1 1h-3l-1 1h-3l-1 1h-2l-1 1h-1zm-18 8l-25-15 1-1h1l1-1 1-1h1l1-1h1l1-1 1-1h1l1-1h1l1-1h1l1-1h1l1-1h1l1-1h1l1-1h2l1-1h1l1-1h3l1-1h2l1-1 10 23h-2l-1 1h-2l-1 1h-1l-1 1h-2v1h-1l-1 1h-1l-1 1h-1v1h-1l-1 1h-1zm-7 10h-37l1-1v-2l1-1v-2l1-1v-1l1-1v-1l1-1v-1h1l1-1v-1l1-1 1-1v-1h1l1-1 1-1v-1h1l1-1 1-1 1-1h1l1-1 1-1 25 15v1h-1v1h-1l-1 1-1 1v1h-1v1h-1v2h-1v2zm5 14l-27 19-1-1h-1l-1-1-1-1-1-1-1-1-1-1-1-1-1-1-1-1-1-1v-1l-1-1-1-1v-2l-1-1v-2l-1-1v-14h37v1l-1 1v4h1v3h1v1l1 1 1 1 1 1 1 1h1-1zm50 13l-13 24h-3l-3-1h-3l-2-1h-3l-2-1h-3l-2-1h-2l-3-1h-2l-2-1h-2l-2-1h-2l-2-1h-2l-2-1h-2l-2-1-1-1h-2l-2-1h-1l-2-1-1-1h-2l-1-1-2-1h-1l-1-1-2-1 27-19h1l1 1h1l1 1 1 1h2l2 1h1l1 1h3l1 1h2l1 1h2l2 1h3l2 1h2l2 1h2l2 1h5l2 1h3l2 1h3zm53 9l-14 23 1 1-2-1h-3l-2-1h-5l-1-1h-5l-2-1h-5l-1-1h-5l-2-1h-5l-2-1h-3l-2-1h-5l-2-1h-1l13-24h1l2 1h5l2 1h3l2 1h5l2 1h5l1 1h5l2 1h5l1 1h4l1 1h5l2 1zm56 11l-18 23h-3l-2-1h-1l-2-1h-2l-1-1h-4l-1-1h-4l-1-1h-4l-1-1h-4l-1-1h-3l-2-1h-3l-2-1h-4l-2-1h-3l-2-1 14-23h5l1 1h4l1 1h4l2 1h3l2 1h3l2 1h3l2 1h2l2 1h3l2 1h2l2 1h3l2 1h2l2 1h2zm86 43l-31 15h-1l-1-1-1-2-2-1-1-1-2-1-1-2-2-1-1-1-2-1-2-1-2-1-2-2-2-1-2-1-2-1-2-1-3-1-2-1-2-1-3-1-2-1-3-1-3-1-2-1-3-1-3-1-3-1-3-1-3-1-3-1-3-1-4-1 18-23 3 1 4 1 3 1 4 1 3 1 4 1 3 1 3 2 3 1 3 1 3 1 3 1 3 1 3 2 3 1 3 1 3 2 2 1 3 1 2 2 3 1 2 2 2 1 3 2 2 1 2 2 2 1 2 2 2 2 2 1 1 2 2 2zm18 71h-37l1-2v-2l1-2v-22l-1-2v-2l-1-2v-1l-1-2v-2l-1-1-1-2v-1l-1-2-1-1-1-2-1-1-1-2-1-1-1-1-1-2-1-1 31-15 2 2 1 1 2 2 1 2 2 2 1 2 1 2 1 2 2 2 1 2 1 2v2l1 2 1 2 1 3v2l1 2v5l1 2v20l-1 2v3l-1 3v2zm-95 102l-18-20 4-2 4-2 4-2 4-2 4-2 3-2 4-2 3-3 3-2 3-2 3-3 3-2 3-2 2-3 3-2 2-3 2-2 3-3 2-2 2-3 2-3 1-3 2-2 2-3 1-3 1-3 2-3 1-3 1-3 1-3 1-3v-4h37l-1 4-1 4-1 4-1 3-2 4-1 4-2 3-2 4-2 4-2 3-2 3-3 4-2 3-3 4-2 3-3 3-3 3-4 3-3 3-3 3-4 3-4 3-3 3-4 3-5 3-4 3-4 2-5 3-4 2-5 3-5 2-5 3zm-197 37l5-25h26l7-1h12l6-1h6l6-1 6-1h6l6-1 6-1 5-1 6-1 5-1 5-1 6-1 5-2 5-1 5-1 5-2 4-1 5-2 5-1 4-2 5-1 4-2 5-2 4-2 4-2 18 20-5 2-5 2-5 2-5 2-6 2-5 2-5 2-6 2-6 2-5 1-6 2-6 1-6 2-6 1-6 1-6 2-7 1-6 1-6 1-7 1h-6l-7 1-6 1h-7l-7 1h-7l-7 1h-14l-7 1h-14z"/><path id="3" class="fil3" d="M1883 1957l274-382 33 8-274 382-19 8-14-16zm33 8l-6 8h-13l19-8zm-162-17h148l-5 25h-148l-16-8 21-17zm-5 25h-13l-3-8 16 8zm-95-398l115 382-36 8-115-382 21-16 15 8zm-36 8l-5-16h26l-21 16zm163 8h-147l5-24h147l16 8-21 16zm5-24h14l2 8-16-8zm49 274l-69-258 36-8 69 259-2 7h-34zm211-258l-177 258-33-7 177-259 19-8 14 16zm-33-8l6-8h13l-19 8zm158 16h-144l5-24h144l14 16-19 8zm5-24h26l-12 16-14-16z"/><path id="4" class="fil3" d="M2609 1924l-23-17 4-3 5-3 5-3 4-4 5-3 4-4 4-3 4-4 4-3 4-4 3-4 4-4 3-4 4-4 3-4 3-4 3-5 3-4 2-5 3-4 3-5 2-5 2-4 2-5 2-5 2-5 2-5 2-6 2-5 1-5 1-6 2-5h36l-1 6-2 6-1 5-2 6-2 6-2 5-2 6-2 5-3 6-2 5-3 5-3 6-3 5-3 5-3 5-3 4-4 5-4 5-3 5-4 4-4 5-5 4-4 4-4 5-5 4-5 4-5 4-5 4-5 4-5 4-6 3-5 4zm-226 57l5-25h22l8-1h7l7-1h7l7-1 7-1 6-1 7-1 7-1 6-1 6-1 7-2 6-1 6-2 6-1 6-2 6-2 5-2 6-2 6-2 5-3 6-2 5-2 5-3 5-2 6-3 5-3 5-3 5-3 23 17-6 3-6 4-6 3-6 3-6 3-6 3-6 3-7 3-6 2-7 3-6 2-7 3-7 2-7 2-7 2-7 2-7 1-7 2-7 2-8 1-7 1-8 1-7 1-8 1-8 1-8 1h-7l-8 1h-9l-8 1h-16zm-202-58l30-17 4 4 3 2 4 3 4 3 4 3 5 2 4 3 4 2 5 2 5 3 4 2 5 2 5 2 5 1 6 2 5 2 6 1 5 2 6 1 6 1 6 1 6 1 7 1 6 1 7 1h7l7 1h7l7 1h22l-5 25h-17l-8-1h-8l-7-1h-8l-8-1-7-1-7-1-8-1-7-1-7-1-6-2-7-1-7-2-6-2-6-1-6-2-6-2-6-3-6-2-6-2-5-3-6-3-5-2-5-3-5-3-5-3-4-4-5-3-4-3-4-4zm-46-153h36l-1 5-1 6v5l-1 5v5l-1 5v15l1 5v5l1 4v5l1 4 1 4 1 5 2 4 1 4 2 4 2 4 2 4 2 4 2 4 2 3 3 4 2 4 3 3 3 3 3 4 3 3 4 3 3 3-30 17-4-4-4-3-4-4-3-4-4-4-3-4-3-4-3-4-3-4-2-5-2-4-3-5-2-4-1-5-2-5-2-4-1-5-1-5-1-5-1-5-1-5v-11l-1-5v-5l1-6v-11l1-6 1-6 1-5 1-6zm110-154l23 17-5 3-4 3-5 3-4 4-5 3-4 4-4 3-4 4-4 3-4 4-3 4-4 4-3 4-4 4-3 4-3 4-3 5-3 4-2 5-3 4-3 5-2 4-2 5-2 5-3 5-1 5-2 5-2 5-2 6-1 5-1 5-2 6h-36l1-6 2-6 1-6 2-5 2-6 2-6 2-5 2-6 3-5 2-5 3-5 3-6 3-5 3-5 3-5 3-4 4-5 3-5 4-5 4-4 4-5 4-4 5-4 4-5 5-4 4-4 5-4 5-4 6-4 5-4 5-3 6-4zm226-57l-5 24h-15l-8 1h-14l-7 1-7 1h-7l-7 1-7 1-6 1-7 1-6 2-7 1-6 1-6 2-6 1-6 2-6 2-6 2-6 2-6 2-5 2-6 2-5 3-5 2-6 3-5 2-5 3-5 3-5 3-5 3-23-17 5-3 6-4 6-3 6-3 6-3 6-3 7-3 6-3 6-3 7-2 7-3 6-2 7-2 7-2 7-2 7-2 7-2 8-1 7-2 7-1 8-2 7-1 8-1 8-1 7-1h8l8-1h8l8-1h25zm202 57l-30 17-4-4-4-2-3-3-4-3-5-3-4-2-4-3-5-2-4-2-5-2-5-2-5-2-5-2-5-2-5-2-6-1-5-2-6-1-6-2-6-1-6-1-6-1-6-1-7-1h-6l-7-1-7-1h-14l-7-1h-15l5-24h24l8 1h8l8 1h7l8 1 7 1 7 1 7 1 7 2 7 1 7 1 6 2 6 2 7 2 6 2 6 2 6 2 6 2 5 3 6 2 5 3 5 2 5 3 5 3 5 3 5 4 4 3 5 3 4 4zm46 154h-36l1-6 1-5v-6l1-5v-5l1-5v-20l-1-5-1-4v-5l-1-4-1-5-1-4-2-4-1-4-2-4-2-4-1-4-3-4-2-4-2-4-3-3-2-4-3-3-3-4-3-3-3-3-4-3-3-3 30-17 4 3 4 4 4 4 3 4 4 4 3 4 3 4 3 4 3 4 2 5 3 4 2 4 2 5 2 5 1 4 2 5 1 5 1 5 1 5 1 5 1 5v6l1 5v16l-1 6v5l-1 6-1 6-1 6-1 6zm-181-55l36-7 1 2v3l1 2v5l1 2v22l-1 2v6l-1 3v4l-1 2v4l-1 2v3h-37l1-2v-3l1-2v-3l1-2v-8l1-2v-24l-1-2v-4l-1-2v-1zm-17-35l31-16 1 1 1 1 1 1 1 1v1l1 1 1 2 1 1 1 1 1 1 1 1 1 2v1l1 1 1 2v1l1 1 1 2v1l1 1 1 2v1l1 2v1l1 2v1l1 2v1l1 2v1l1 2v3l-36 7v-1l-1-2v-3l-1-1v-1l-1-1v-3l-1-1v-1l-1-1v-2l-1-1v-1l-1-1v-1l-1-1-1-1v-1l-1-1v-1l-1-1-1-1v-1l-1-1-1-1v-1l-1-1-1-1-1-1zm-31-19l20-23 1 1h2l1 1 2 1h2l1 1h2l1 1 2 1 1 1h1l2 1 1 1 2 1h1l1 1 2 1 1 1 1 1 2 1h1l1 1 1 1 1 1 2 1 1 1 1 1 1 1 1 1 1 1 1 1 1 1-31 16-1-1-1-1-1-1-1-1h-1v-1l-1-1-1-1h-1l-1-1-1-1h-1l-1-1-1-1h-1v-1h-1l-1-1h-1l-1-1h-1l-1-1h-1l-1-1h-1l-1-1h-1l-1-1h-2l-1-1h-2zm-39-6l5-24h18l1 1h7l2 1h5l2 1h3l1 1h4l1 1h2l1 1h4l1 1h2l-20 23h-1l-1-1h-2l-1-1h-3l-1-1h-4l-1-1h-5l-1-1h-9l-1-1h-9zm-41 5l-10-22 2-1h3l2-1h1l2-1h3l2-1h4l1-1h6l1-1h8l1-1h20l-5 24h-10l-1 1h-9l-2 1h-6l-1 1h-4l-1 1h-2l-2 1h-3zm-38 19l-26-15h1l1-1 2-1 2-2 1-1 2-1 1-1 2-1 2-1h1l2-1 1-1 2-1 2-1 1-1 2-1 2-1h1l2-1 2-1 1-1h2l2-1 1-1 2-1h2l2-1h1l2-1 2-1h1l2-1h2l10 22-1 1h-2l-2 1h-1l-1 1h-2l-1 1h-1l-2 1h-1l-1 1h-1l-1 1h-1l-2 1-1 1h-1l-1 1-2 1h-1l-1 1-1 1-2 1h-1l-1 1-1 1-2 1-1 1-1 1h-2 1zm-33 36l-33-7 1-2 1-2 1-1 1-2 1-1 1-2 2-1 1-2 1-1 1-2 1-1 1-2 2-1 1-2 1-1 1-1 2-2 1-1 1-1 2-2 1-1 1-1 2-2 1-1 1-1 2-1 1-1 2-2 1-1 1-1 2-1 1-1 26 15-1 1-1 1-1 1h-2l-1 1-1 1-1 1-1 1-1 1-1 1-1 1-1 1-1 1-1 1-1 1-1 1-1 1-1 1-1 2-1 1-1 1-1 1-1 1-1 2-1 1-1 1-1 2-1 1-1 1-1 2-1 1-1 2zm-21 55h-37l1-2v-3l1-2v-2l1-2v-2l1-2 1-2v-2l1-2v-2l1-3 1-2 1-2v-1l1-2 1-2 1-2v-2l1-2 1-2 1-2 1-2 1-1 1-2 1-2 1-2 1-2 1-1 1-2 1-2 1-1 33 7-1 1v1l-1 2-1 1-1 2-1 1-1 2-1 1v2l-1 2-1 1-1 2v2l-1 1-1 2v2l-1 1-1 2v2l-1 2-1 2v1l-1 2v2l-1 2v2l-1 2v2l-1 2v2l-1 2v2zm-2 55l-37 7v-4l-1-1v-5l-1-2v-24l1-3v-6l1-2v-4l1-2v-5l1-2v-2h37l-1 2v2l-1 2v4l-1 2v6l-1 2v28l1 1v4l1 2zm18 35l-32 15-1-2-1-1-1-1-1-1-1-1-1-1-1-2-1-1-1-1-1-1-1-2v-1l-1-1-1-1-1-2v-1l-1-1-1-2v-1l-1-2v-1l-1-1-1-2v-1l-1-2v-1l-1-2v-3l-1-1v-2l-1-1 37-7v2l1 2v2l1 1v2l1 1v1l1 1v1l1 2v1l1 1v1l1 1v1l1 1v1l1 1 1 1v1l1 1 1 1v1l1 1 1 1 1 1v1l1 1 1 1 1 1zm30 18l-19 23h-2l-1-1-2-1h-2l-1-1h-2l-1-1-2-1h-1l-2-1-1-1-2-1h-1l-1-1-2-1-1-1-2-1h-1l-1-1-1-1-2-1-1-1-1-1-1-1-2-1-1-1-1-1-1-1-1-1-1-1-1-1-1-1 32-15 1 1 1 1 1 1 1 1h1v1l1 1 1 1h1l1 1 1 1h1l1 1 1 1h1l1 1h1l1 1h1l1 1h1l1 1h1l1 1h1l1 1h2l1 1h2zm39 6l-5 25h-10l-2-1h-10l-2-1h-5l-2-1h-3l-2-1h-3l-2-1h-3l-1-1h-2l-2-1h-1l-2-1h-1l19-23 1 1h2l2 1h2l1 1h3l1 1h5l1 1h6l1 1h14zm43-6l10 22-1 1h-2l-2 1h-2l-2 1h-1l-2 1h-4l-2 1h-2l-1 1h-6l-2 1h-5l-2 1h-9l-2 1h-11l5-25h15l1-1h7l1-1h4l1-1h3l1-1h4l2-1h1l1-1h2zm37-19l27 15h-1l-1 1-1 1-2 1-1 1-2 1-1 1-2 1-2 1-1 1-2 1-1 1-2 1-2 1-1 1-2 1h-1l-2 1-2 1-2 1-1 1h-2l-2 1-1 1h-2l-2 1-2 1h-2l-1 1-2 1h-2l-2 1h-2l-10-22h1l1-1h2l1-1h2l2-1h1l1-1h1l1-1h2l1-1h1l1-1 1-1h1l2-1h1l1-1 1-1h1l1-1 2-1h1l1-1 1-1 1-1h1l1-1 1-1 1-1zm33-35l33 7-1 2-1 1-1 2-1 1-1 2-1 1-1 1-1 2-1 1-1 2-1 1-2 1-1 2-1 1-1 2-1 1-2 1-1 2-1 1-2 1-1 1-1 2-2 1-1 1-1 1-2 2-1 1-2 1-1 1-1 1-2 2-1 1-27-15 2-1 1-1 1-1 1-1 1-1 1-1 1-1 2-1 1-1 1-1 1-1 1-1 1-1 1-1 1-1 1-1 1-1 1-1 1-1 1-1 1-2 1-1 1-1 1-1 1-1 1-1 1-2 1-1v-1l1-1 1-2 1-1zm20-54h37l-1 2v2l-1 2v3l-1 2v2l-1 2-1 2v2l-1 2v3l-1 2-1 2v2l-1 2-1 1-1 2v2l-1 2-1 2-1 2v2l-1 1-1 2-1 2-1 1-1 2-1 2-1 1-1 2-1 2-1 1-33-7 1-1 1-1v-2l1-1 1-1 1-2v-1l1-2 1-1 1-2v-1l1-2 1-1v-2l1-2 1-1v-2l1-2v-2l1-1 1-2v-2l1-2v-2l1-2v-2l1-2v-2l1-2v-2l1-2v-2z"/><path id="5" class="fil3" d="M3039 1795l242-222 28 12-241 222-33-6 4-6zm-4 6l1-3 3-3-4 6zm-33 160l33-160h37l-34 160-20 12-16-12zm36 0l-2 12h-18l20-12zm-157-13h142l-5 25h-143l-15-12 21-13zm-6 25h-18l3-12 15 12zm53-167l-32 155h-36l32-155 35-6 1 6zm-1-6l2 3-1 3-1-6zm-151-227l151 227-34 12-151-227 20-18 14 6zm-34 12l-12-18h32l-20 18zm176 6h-161l5-24h161l15 6-20 18zm5-24h11l4 6-15-6zm63 155l-82-137 34-12 83 137-3 12h-32zm32 0l-20 20-12-20h32zm136-137l-136 137-29-12 136-137 17-6 12 18zm-29-12l6-6h11l-17 6zm168 18h-156l5-24h156l11 18-16 6z"/><path id="6" class="fil3" d="M3493 1583l-271 382-33-8 271-382 19-8 14 16zm-33-8l6-8h13l-19 8zm169 16h-155l5-24h155l15 8-20 16zm5-24h13l2 8-15-8zm91 398l-112-382 36-8 112 382-21 16-15-8zm36-8l5 16h-26l21-16zm-162-9h147l-6 25h-146l-15-9 20-16zm-5 25h-13l-2-9 15 9zm2-93l19 77-36 7-19-77 20-16 16 9zm-16-9h14l2 9-16-9zm-179 0h179l-5 25h-179l-14-16 19-9zm-19 9l6-9h13l-19 9zm-51 77l51-77 33 7-51 77-19 9-14-16zm33 7l-5 9h-14l19-9zm-156-16h142l-5 25h-142l-14-16 19-9zm-5 25h-25l11-16 14 16zm344-290l32 127-36 7-32-126 2-8h34zm-119 127l85-127 33 8-85 126-19 9-14-16zm14 16h-25l11-16 14 16zm117 0h-117l5-25h117l15 9-20 16zm20-16l4 16h-24l20-16z"/><path id="7" class="fil3" d="M4177 1971l-4-24 4-1h4l3-1 4-1h4l3-1h4l3-1 4-1h3l3-1h4l3-1 3-1h3l3-1h3l3-1 3-1h3l3-1 3-1h3l2-1h3l3-1 2-1h3l2-1h3l2-1 2-1 9 23-2 1h-3l-2 1-3 1h-3l-3 1-3 1h-2l-3 1-3 1h-3l-3 1-4 1h-3l-3 1-3 1h-3l-4 1-3 1h-3l-4 1h-3l-4 1-3 1h-4l-3 1-4 1h-4l-4 1h-3l-4 1-4 1zm-124 10l5-25h28l4-1h14l4-1h11l3-1h7l4-1h4l3-1h4l4-1h7l4-1h3l4-1 4-1h3l4 24h-4l-4 1-4 1h-4l-4 1h-4l-4 1h-4l-4 1h-7l-4 1h-4l-4 1h-8l-4 1h-11l-4 1h-19l-4 1h-19zm-213-56l29-17 4 3 4 3 4 2 5 3 4 3 5 2 4 3 5 2 5 2 5 2 6 2 5 2 5 2 6 2 6 1 5 2 6 1 7 2 6 1 6 1 7 1 6 1 7 1 7 1 7 1h7l7 1h8l7 1h23l-5 25h-17l-8-1h-8l-8-1h-8l-8-1-8-1-8-1-7-1-8-1-7-1-7-1-7-2-7-1-7-2-6-2-7-2-6-2-7-2-6-2-6-2-6-3-5-2-6-3-5-3-6-3-5-3-5-3-5-3-5-3-4-4zm-52-156h36l-1 6-1 5-1 6v5l-1 6v25l1 5 1 5v4l2 5 1 4 1 4 2 5 1 4 2 4 2 4 2 4 2 4 3 4 2 3 3 4 3 3 3 4 3 3 4 3 3 4 4 3 4 3-29 17-5-3-4-4-4-4-4-3-4-4-3-4-4-4-3-5-3-4-3-4-3-5-2-4-2-5-2-4-2-5-2-5-1-5-2-5-1-5-1-5-1-6v-5l-1-5v-23l1-6 1-6v-6l1-6 2-6zm116-153l22 18-5 3-5 3-5 3-5 4-4 3-5 4-4 3-5 4-4 4-4 3-4 4-3 4-4 4-4 4-3 4-3 4-3 5-3 4-3 4-3 5-3 4-2 5-3 5-2 4-2 5-2 5-2 5-1 5-2 5-1 5-2 6-1 5h-36l1-6 1-5 2-6 2-6 2-5 2-6 2-5 2-6 3-5 2-5 3-5 3-5 3-5 3-5 4-5 3-5 4-5 4-5 4-4 4-5 4-4 5-5 5-4 4-4 5-4 5-5 6-4 5-3 5-4 6-4 6-4 6-4zm242-57l-6 24h-16l-8 1h-16l-7 1-8 1h-7l-8 1-7 1-7 1-7 1-7 2-7 1-7 1-7 2-6 2-7 1-6 2-7 2-6 2-6 2-6 2-6 3-6 2-6 3-5 2-6 3-6 3-5 3-5 3-6 3-22-18 6-3 6-4 7-3 6-3 6-3 7-3 7-3 7-3 6-3 7-2 8-3 7-2 7-2 7-2 8-2 7-2 8-2 8-1 7-2 8-1 8-2 8-1 9-1 8-1 8-1h8l9-1h8l9-1h27zm118 9l-15 24-3-1h-2l-3-1h-2l-3-1h-6l-3-1h-3l-3-1h-6l-3-1h-6l-4-1h-10l-4-1h-23l-4-1h-21l6-24h38l4 1h16l4 1h7l4 1h7l3 1h4l3 1h7l3 1h3l3 1 3 1h3l3 1h3zm97 37h-36l8 11-3-1-2-1-3-1-3-1-2-1-3-1-3-1h-2l-3-1-3-1-2-1-3-1h-3l-2-1-3-1-3-1-2-1h-3l-2-1-3-1h-3l-2-1-3-1h-3l-2-1-3-1h-2l-3-1-2-1h-3l-3-1h-2l15-24 3 1h3l3 1 2 1h3l3 1 3 1h2l3 1 3 1 3 1h3l2 1 3 1 3 1h3l2 1 3 1 3 1 3 1 3 1h2l3 1 3 1 3 1 3 1 2 1 3 1 3 1 3 1 3 1 3 1 7 11zm-7-11l9 3-2 8-7-11zm-48 100l19-89h36l-18 89-21 13-16-13zm37 0l-3 13h-18l21-13zm-29-12h13l-5 25h-13l-11-3 16-22zm-5 25h-6l-5-3 11 3zm-37-18l26-20 1 1 2 1h1l1 1h1l1 1h1l1 1v1h1l1 1h1l1 1h1l1 1h1v1h2l1 1h1v1h1l1 1h1l1 1h1v1h1l1 1-27 19-1-1h-1l-1-1-1-1h-1l-1-1h-1v-1h-2l-1-1h-1v-1h-1l-1-1h-1l-1-1h-1l-1-1h-1l-1-1v-1h-1l-1-1h-1l-2-1h-1l-1-1zm-32-16l23-21h1l1 1h2l1 1h1l1 1h2l1 1 1 1h1l1 1h1l1 1h1l2 1h1l1 1h1l1 1 1 1h1l1 1h1l2 1 1 1h1l1 1h1l1 1 1 1h1l-26 20-1-1h-1l-1-1h-1l-1-1-1-1h-1l-1-1h-1l-1-1h-1l-1-1h-1l-1-1h-1l-1-1h-1l-1-1h-1l-1-1h-1l-1-1h-1l-1-1h-2l-1-1h-1l-1-1h-1l-1-1h-1zm-43-13l16-24 2 1h2l1 1h4l1 1h2l2 1h1l2 1h2l1 1h3l2 1h2l1 1h2l1 1h2l1 1h2l1 1h2l1 1h1l2 1h1l2 1 1 1h1l2 1-23 21h-1l-1-1h-1l-1-1h-1l-2-1h-1l-1-1h-3l-1-1h-1l-1-1h-2l-1-1h-3l-1-1h-1l-2-1h-3l-1-1h-2l-1-1h-3l-2-1h-3l-1-1h-2zm-52-5l5-25h16l2 1h13l2 1h5l2 1h6l2 1h4l2 1h3l2 1h4l-16 24h-1l-2-1h-3l-1-1h-5l-2-1h-6l-2-1h-8l-1-1h-21zm-62 7l-8-23 2-1h2l3-1h2l2-1h2l3-1h2l2-1h5l2-1h5l2-1h7l3-1h11l3-1h17l-5 25h-23l-2 1h-7l-2 1h-6l-2 1h-4l-1 1h-4l-2 1h-3l-2 1h-2l-2 1zm-51 20l-23-17h1l1-1 2-1 2-1 2-1 2-1 2-1 2-1 2-1 2-1 2-1 2-1 2-1 2-1 2-1 2-1h2l2-1 2-1 2-1 2-1h2l2-1 2-1 3-1h2l2-1h2l2-1 2-1h3l2-1h2l8 23h-3l-2 1h-2l-1 1h-2l-2 1h-1l-2 1h-2l-1 1-2 1h-2l-1 1h-2l-2 1-1 1h-2l-1 1-2 1-1 1h-2l-2 1-1 1-2 1h-1l-2 1-1 1-2 1-1 1-2 1h-1zm-39 35l-32-8v-1l1-1 1-2 2-1 1-2 1-1 1-2 2-1 1-2 2-1 1-2 1-1 2-2 1-1 2-1 1-2 2-1 1-2 2-1 1-1 2-2 2-1 1-1 2-1 1-2 2-1 2-1 1-1 2-1 2-2 2-1 2-1 1-1 23 17-2 1-1 1-1 1-2 1-1 1-1 1-2 1h-1l-1 1-1 1-2 1-1 1-1 1-2 1-1 2-1 1-1 1-1 1-2 1-1 1-1 1-1 1-1 2-1 1-1 1-2 1-1 2-1 1-1 1-1 1-1 2-1 1zm-22 51h-37l1-2v-2l1-2v-2l1-2v-2l1-2v-2l1-2 1-2v-2l1-2 1-2 1-2v-2l1-2 1-1 1-2 1-2 1-2 1-2 1-1 1-2 1-2 1-2 1-1 1-2 1-2 1-2 1-1 1-2 2-1 32 8-1 1-1 2-1 1-1 2-1 1-1 1-1 2v1l-1 2-1 1-1 2-1 1v2l-1 1-1 2-1 1v2l-1 2-1 1v2l-1 1-1 2v2l-1 2v1l-1 2v2l-1 2v1l-1 2v4zm25 90l-29 18-3-3-3-2-3-2-2-3-3-3-2-2-2-3-2-3-2-3-2-3-2-3-1-3-2-3-1-3-1-4-1-3-1-3-1-4-1-3v-4l-1-4v-27l1-4 1-5v-4l1-4h37l-1 4-1 4v3l-1 4v4l-1 3v11l1 3v6l1 3v3l1 3 1 3 1 3 1 3 1 2 1 3 1 2 1 3 2 2 1 2 2 2 2 2 1 3 2 2 2 1 2 2 3 2 2 2zm117 28l-5 25h-16l-6-1h-11l-5-1h-5l-5-1h-5l-5-1-5-1-4-1-5-1-5-1-4-1-4-1-5-1-4-1-4-2-4-1-4-2-4-1-4-2-4-1-3-2-4-2-3-2-3-2-4-2-3-2-3-2 29-18 2 2 3 1 2 2 3 1 3 2 2 1 3 2 3 1 3 1 3 2 4 1 3 1 3 1 4 1 3 1 4 1 3 1 4 1 4 1h4l4 1h4l4 1 5 1h9l4 1h24zm18 0l-4 25h-19l5-25h18zm-2 12h36l-19 12h-13l-1 1h-5l4-25h14l1-1h2l-19 13zm36 0l-2 11-17 1 19-12zm16-76l-16 76h-36l15-76 21-12 16 12zm-16-12h18l-2 12-16-12zm-110 0h110l-5 25h-110l-15-13 20-12zm-5 25h-18l3-13 15 13zm36-84l-15 71h-36l15-71 20-13 16 13zm-36 0l2-13h18l-20 13zm263 12h-248l5-25h248l15 13-20 12zm5-25h18l-3 13-15-13zm-60 201l39-188h36l-39 188-14 11-22-11zm36 0l-2 8-12 3 14-11z"/><path id="8" class="fil3" d="M4476 1579l-80 382h-36l80-382 20-12 16 12zm-36 0l2-12h18l-20 12zm398 12h-383l5-24h383l16 12-21 12zm5-24h18l-2 12-16-12zm-36 85l15-73h37l-16 73-20 12-16-12zm36 0l-2 12h-18l20-12zm-256-12h241l-5 24h-242l-15-12 21-12zm-21 12l2-12h19l-21 12zm-14 67l14-67h36l-14 67-20 12-16-12zm16 12h-19l3-12 16 12zm222 0h-222l5-25h222l16 13-21 12zm5-25h18l-2 13-16-13zm-36 86l15-73h37l-16 73-20 12-16-12zm36 0l-2 12h-18l20-12zm-238-13h223l-5 25h-223l-15-12 20-13zm-20 13l2-13h18l-20 13zm-20 96l20-96h36l-20 96-21 12-15-12zm15 12h-18l3-12 15 12zm241 0h-241l5-25h241l16 13-21 12zm5-25h19l-3 13-16-13zm-36 86l16-73h36l-15 73-21 12-16-12zm37 0l-3 12h-18l21-12zm-398-13h382l-5 25h-382l-16-12 21-13zm-5 25h-19l3-12 16 12z"/><path id="9" class="fil4" d="M498 1844c-4 19-13 35-27 50-13 14-30 26-50 35-24 12-49 20-75 24-27 5-60 8-99 8H21l79-382h200c42 0 73 1 94 3s40 7 58 13c18 8 32 18 39 30s10 26 6 43c-4 18-14 35-31 49-17 15-38 25-64 32v2c34 5 59 15 77 31 18 15 24 36 19 62zm-149-157c1-6 0-13-4-19-3-7-9-12-18-14-9-3-20-5-33-5h-67l-17 81h18c25 0 42-1 52-1 9 0 20-2 31-5 12-4 21-9 26-15 6-7 10-14 12-22zm3 155c2-12 1-21-5-28-6-6-15-11-29-15-8-2-19-3-34-3-16-1-36-1-61-1h-26l-20 96h8c36 0 62 0 76-1 15 0 29-2 45-7 14-3 24-9 32-16 7-7 12-16 14-25z"/><path id="10" class="fil4" d="M782 1969c-76 0-132-13-168-38-36-24-49-61-39-108l51-244h142l-49 238c-6 26-2 46 10 59s34 19 68 19c32 0 57-6 75-18 18-13 30-33 36-60l49-238h143l-51 243c-10 47-37 83-83 109-45 25-106 38-184 38z"/><path id="11" class="fil4" d="M1302 1967c-43 0-80-2-112-8s-60-13-87-21l19-91h13c25 16 54 29 86 38 32 8 64 13 96 13 8 0 19-1 33-2 13-1 24-3 33-6 10-3 19-7 27-12s13-12 15-20c2-10-2-18-12-24s-22-10-37-13c-19-3-38-7-60-10-21-3-40-6-58-11-42-10-70-24-86-42-15-18-20-40-14-66 7-36 36-65 85-87s108-33 175-33c33 0 66 2 99 7 32 5 60 11 85 19l-18 87h-13c-18-12-42-22-70-31-29-8-59-12-91-12-12 0-23 0-33 2-10 1-21 3-33 6-9 3-18 7-25 12-8 6-12 12-14 18-2 10 2 18 11 24 9 5 28 10 56 15 18 3 36 6 53 9 17 2 35 6 54 11 37 9 64 22 79 38 16 17 21 38 16 64-8 38-37 69-86 92s-111 34-186 34z"/><path id="12" class="fil4" d="M2174 1579l-274 382h-149l-115-382h148l69 259 177-259z"/><path id="13" class="fil4" d="M2701 1770c-13 62-48 110-104 145-56 36-127 54-212 54s-148-18-189-54-55-84-43-145c13-61 47-110 103-146 56-35 127-53 212-53s148 18 190 53c41 36 56 84 43 146zm-146 0c4-23 5-43 1-58-3-17-10-30-19-40-10-10-23-18-37-22-14-5-30-7-46-7-18 0-34 2-49 6s-30 12-46 23c-14 9-26 23-36 39-11 17-19 36-24 59-4 23-5 43-1 58 3 16 10 29 20 39 10 11 22 18 36 23 15 4 30 7 47 7s33-3 50-8 32-12 45-22c15-12 27-25 37-39 9-15 17-34 22-58z"/><path id="14" class="fil4" d="M3295 1579l-241 222-34 160h-142l32-155-151-227h162l83 137 136-137z"/><path id="15" class="fil4" d="M3206 1961l270-382h155l112 382h-146l-19-78h-179l-51 78h-142zm355-147l-32-127-84 127h116z"/><path id="16" class="fil4" d="M4276 1939c-26 7-60 13-101 20-41 6-81 10-119 10-89 0-156-18-202-52-45-35-61-84-48-148 12-60 49-108 109-144s136-54 228-54c47 0 85 3 114 9 28 6 57 14 86 25l-18 89h-13c-6-3-15-8-27-15-11-6-22-12-34-17-13-5-28-10-46-14s-37-6-58-6c-24 0-47 3-68 8s-40 13-58 24c-17 10-32 23-44 39s-20 34-25 55c-9 45 1 78 29 99 29 21 72 32 130 32 5 0 11 0 18-1h18l16-76h-110l15-71h247l-39 188z"/><path id="17" class="fil4" d="M4378 1961l80-382h382l-15 73h-241l-14 67h223l-16 73h-222l-20 96h241l-15 73z"/></g></g></svg>