<svg xmlns="http://www.w3.org/2000/svg" width="586.601" height="151.181" viewBox="0 0 6110 1575" shape-rendering="geometricPrecision" text-rendering="geometricPrecision" image-rendering="optimizeQuality" fill-rule="evenodd" clip-rule="evenodd"><defs><style>.fil1{fill:#3c438b}.fil0{fill:#a8cf45}.fil2,.fil3{fill:#3c438b;fill-rule:nonzero}.fil3{fill:#a8cf45}</style></defs><g id="Layer_x0020_1"><g id="_755219408"><path class="fil0" d="M1120 203c39-19 86-2 105 38 18 39 1 85-39 104-39 19-86 1-104-38-18-40-2-86 38-104zM958 334c22-9 47-1 57 21 10 21 1 47-21 56-21 11-46 1-57-20-9-22 0-46 21-57z"/><g id="_1315346336"><path class="fil1" d="M310 443h532c55 0 100 44 100 99 0 56-45 101-100 101H410v160h341c55 0 101 46 101 101s-46 100-101 100H410v160h432c55 0 100 45 100 101 0 55-45 100-100 100H300c-1-1-2-1-2-1h-3c-1 0-2 0-3-1h-2c-1 0-2 0-3-1h-2c-1-1-3-1-4-2h-3c-1-1-1-1-2-1-1-1-2-1-3-1 0-1-1-1-2-1-1-1-2-1-2-1-1-1-2-1-3-1 0-1-1-1-1-1l-2-2c-1 0-2 0-2-1-1 0-2-1-3-1 0-1-1-1-2-2-1 0-1 0-2-1-1 0-1-1-2-1-1-1-1-1-2-1s-1-1-2-1l-2-2c-1-1-1-1-1-2-1 0-1-1-2-1l-2-2c0-1-1-1-2-2 0 0-1-1-1-2-1 0-1-1-2-2-1 0-1-1-2-1 0-1-1-2-1-2-1-1-1-2-2-2 0 0-1-1-2-1 0-1-1-2-1-2 0-1-1-2-1-2-1-1-1-2-2-3v-2c-1 0-1-1-2-2 0-1 0-1-1-2 0-1-1-2-1-2 0-1-1-2-1-3l-1-1c-1-1-1-2-1-2-1-1-1-2-1-3-1-1-1-1-1-2s-1-2-1-3c0 0-1-1-1-2 0-2-1-3-1-5 0-1-1-2-1-3v-1c-1-1-1-2-1-3v-2c0-1-1-2-1-3v-11c-1 0-1 0-1-1V542s0-1 1-1v-11c0-1 1-2 1-3v-2c0-1 0-2 1-3v-1c0-1 1-2 1-3 0-2 1-3 1-5 0-1 1-1 1-2s1-2 1-3 0-1 1-2c0-1 0-2 1-3 0 0 0-1 1-2 0 0 1 0 1-1s1-2 1-2c0-1 1-2 1-3 1 0 1-1 1-2l2-2v-2c1-1 1-2 2-2 0-1 1-2 1-3 0 0 1-1 1-2 1 0 2 0 2-1 1 0 1-1 2-2 0 0 1-1 1-2 1 0 1-1 2-1 1-1 1-2 2-2 0-1 1-1 1-2 1-1 2-1 2-2 1 0 1-1 2-2 1 0 1-1 2-1 0-1 0-1 1-2 1 0 1-1 2-1 1-1 1-2 2-2s1 0 2-1c1 0 1 0 2-1 1 0 1-1 2-1 1-1 2-1 2-2 1 0 2-1 3-1 0 0 1-1 2-1 1-1 1-1 2-1 0-1 1-1 1-2 1 0 2 0 3-1 0 0 1 0 2-1 1 0 2 0 2-1 1 0 2 0 3-1h2c1-1 2-1 3-1 1-1 3-1 4-2h2c1-1 2-1 3-1h2c1-1 2-1 3-1h5c1-1 2-1 3-1h7v1zm1653 599V542c0-55 45-99 101-99 55 0 100 44 100 99v500c0 55-45 100-100 100-56 0-101-45-101-100zm-875 223V542c0-55 44-99 99-99h297c184 0 333 150 333 333s-149 334-333 334h-196v155c0 55-45 100-101 100-55 0-99-45-99-100zm200-622v266h196c73 0 134-60 134-133s-61-133-134-133h-196zm1482 722c139 0 263-61 348-158 36-42 31-106-10-142-42-36-105-33-141 9-49 56-118 90-197 90-144 0-260-116-260-260 0-145 116-261 260-261 79 0 148 35 197 90 36 42 99 45 141 9 41-36 46-100 10-142-85-97-209-157-348-157-254 0-461 206-461 461 0 254 207 461 461 461z"/><path class="fil0" d="M2769 958c-31 0-55-25-55-54 0-30 24-55 55-55 30 0 55 25 55 55 0 29-25 54-55 54zm164-54c0-13-7-25-20-29-11-5-19-10-23-21-5-12-3-21 2-32 5-12 2-26-6-35-10-10-23-11-35-7-6 3-12 5-17 6-5 0-10-1-15-3h-1c-11-5-16-13-20-24-4-12-16-21-29-21-14 0-25 9-30 21-3 11-8 19-20 24h-1c-11 5-20 3-31-3-11-4-25-3-34 7-10 9-13 23-7 35 5 11 7 20 2 32-5 11-12 16-24 21-12 4-20 16-20 29 0 12 8 24 20 29 12 4 19 9 24 20 5 12 3 21-2 32-6 12-3 26 7 35 9 10 23 11 34 7 6-3 11-5 16-5 6-1 11 0 16 2 12 5 17 13 20 25 5 12 16 20 30 20 13 0 25-8 29-20s9-19 20-25h2c11-5 20-2 31 3 12 5 25 3 35-7 8-9 11-23 6-35-5-11-7-20-2-32 4-11 12-16 23-20 13-5 20-17 20-29z"/></g><path class="fil0" d="M2015 1217c72-26 151 11 177 82 27 71-10 150-81 176-71 27-150-10-177-81-26-71 11-150 81-177zM70 1294h69v-68c0-39 32-71 70-71 39 0 72 32 72 71v68h68c39 0 71 32 71 71s-32 70-71 70h-68v68c0 39-33 72-72 72-38 0-70-33-70-72v-68H70c-39 0-70-31-70-70s31-71 70-71zm1366-982l77-117 76-116c9-12 9-27 3-40-7-13-19-22-34-22l-139-8-139-9c-15-1-28 6-36 18-8 13-9 28-2 40l62 125 62 124c7 14 19 22 34 23s27-5 36-18z"/><path class="fil2" d="M3627 715h45V532h-45v183zm228 0h39V532h-45v110l-93-110h-39v183h46V603l92 112zm225-144v-39h-156v39h56v144h45V571h55zm176 144v-39h-104v-36h84v-38h-84v-31h104v-39h-147v183h147zm37 0h45v-65h18l56 65h48v-9l-54-59c26-8 44-27 44-55 0-41-28-60-70-60h-87v183zm86-144c15 0 24 9 24 23 0 13-9 22-24 22h-41v-45h41zm248 144h40V532h-46v110l-92-110h-39v183h46V603l91 112zm64 0h45l13-35h76l12 35h46l-68-183h-54l-70 183zm97-138l27 71h-55l28-71zm245-6v-39h-156v39h56v144h46V571h54zm30 144h45V532h-45v183zm80-92c0 54 41 95 94 95 54 0 94-41 94-95s-40-94-94-94c-53 0-94 40-94 94zm44 0c0-29 21-51 50-51s49 22 49 51c0 30-20 52-49 52s-50-22-50-52zm316 92h39V532h-44v110l-93-110h-40v183h46V603l92 112zm63 0h46l12-35h77l13 35h45l-69-183h-53l-71 183zm97-138l27 71h-54l27-71zm257 138v-39h-91V532h-46v183h137zM3620 982c12 7 38 15 64 15 44 0 75-22 75-56 0-26-17-40-49-48l-36-10c-17-4-25-10-25-23 0-14 12-25 41-25 20 0 44 7 56 15l9-26c-15-7-39-14-64-14-49 0-72 24-72 52 0 24 16 41 46 48l33 8c22 5 32 13 32 26 0 18-18 28-45 28-24 0-46-9-58-17l-7 27zm205-170h-28v107c0 46 28 79 81 79 54 0 81-36 81-79V812h-28v105c0 32-17 55-53 55s-53-21-53-55V812zm357 183h27V812h-24l-75 90-74-90h-25v183h27V856l70 84h4l70-84v139zm253 0h28V812h-25l-74 90-75-90h-25v183h28V856l69 84h5l69-84v139zm224 0v-24h-115v-58h95v-25h-95v-52h115v-24h-141v183h141zm42 0h28v-67h34l66 67h32v-4l-64-64c30-4 53-25 53-56 0-41-29-59-69-59h-80v183zm83-159c20 0 36 12 36 36 0 22-16 34-36 34h-55v-70h55zm165 146c11 7 38 15 63 15 44 0 75-22 75-56 0-26-17-40-50-48l-35-10c-16-4-25-10-25-23 0-14 12-25 40-25 21 0 45 7 57 15l9-26c-14-7-39-14-65-14-47 0-70 24-70 52 0 24 15 41 45 48l34 8c22 5 31 13 31 26 0 18-18 28-45 28-23 0-45-9-58-17l-6 27zm196-78c0-39 27-69 66-69 26 0 45 10 58 22l14-20c-18-18-43-27-72-27-54 0-95 40-95 94 0 53 41 93 95 93 29 0 54-9 72-27l-14-20c-13 12-32 22-58 22-39 0-66-30-66-68zm319 91h28V812h-28v79h-114v-79h-27v183h27v-80h114v80zm70-91c0 53 41 93 94 93 54 0 94-40 94-93 0-54-40-94-94-94-53 0-94 40-94 94zm27 0c0-39 28-68 67-68s67 29 67 68c0 38-28 68-67 68s-67-30-67-68zm192 0c0 53 40 93 93 93 54 0 95-40 95-93 0-54-41-94-95-94-53 0-93 40-93 94zm27 0c0-39 28-68 66-68 39 0 67 29 67 68 0 38-28 68-67 68-38 0-66-30-66-68zm330 91v-24h-99V812h-28v183h127zm-2505 280h46l12-33h76l13 33h45l-68-183h-53l-71 183zm97-138l27 71h-54l27-71zm120 138h46v-65h18l55 65h49v-8l-54-59c25-7 43-28 43-55 0-41-27-61-70-61h-87v183zm86-143c15 0 24 9 24 22 0 14-9 23-24 23h-40v-45h40zm275 143h44v-183h-39l-64 77-66-77h-39v183h46v-111l55 65h8l55-65v111zm237 0v-39h-103v-35h84v-37h-84v-32h103v-40h-147v183h147zm174 0h40v-183h-46v112l-92-112h-39v183h44v-110l93 110zm85 0h45v-183h-45v183zm69 0h46l12-33h77l12 33h46l-69-183h-54l-70 183zm97-138l27 71h-55l28-71z"/><path class="fil3" d="M5083 1238l34-24c30-21 37-40 37-63 0-32-23-61-70-61s-73 27-74 68l40 8c0-20 11-34 33-34 17 0 25 11 25 23 0 13-6 24-24 37l-69 52v34h144v-40h-76zm104-52c0 58 27 94 81 94 55 0 82-36 82-94 0-59-27-96-82-96-54 0-81 37-81 96zm44 0c0-30 8-54 37-54 30 0 38 24 38 54 0 28-8 53-38 53-29 0-37-25-37-53zm134-48l18 34 51-27v133h46v-185h-34l-81 45zm231 142c53 0 80-21 80-53 0-25-12-40-38-46 20-4 32-21 32-39 0-33-26-52-74-52-49 0-74 19-74 52 0 18 12 35 32 39-26 6-38 21-38 46 0 32 27 53 80 53zm0-80c23 0 34 9 34 21s-12 22-34 22c-21 0-34-10-34-22s11-21 34-21zm0-73c18 0 28 6 28 19 0 10-7 19-28 19-20 0-28-9-28-19 0-13 10-19 28-19z"/></g></g></svg>