<svg xmlns="http://www.w3.org/2000/svg" width="293.261" height="188.976" viewBox="0 0 3055 1969" shape-rendering="geometricPrecision" text-rendering="geometricPrecision" image-rendering="optimizeQuality" fill-rule="evenodd" clip-rule="evenodd"><defs><style>.fil0{fill:#086e95}</style></defs><path class="fil0" d="M434 1969l125-626h203l-124 626H434zm613-204h129l-33-231-96 231zm-285 204l308-626h201l124 626h-186l-13-76H999l-33 76H762zm819 0l72-470h-179l30-159h546l-30 159h-168l-70 470h-201zm683-204h129l-33-231-96 231zm-283 204l305-626h201l126 626h-190l-8-76h-201l-33 76h-200zM3055 636h-953c-35 176-156 323-399 424 27 84 122 161 218 161h519c79 0 142-67 165-121h-525c-33-5-33-30-3-35h518c68 0 128-58 162-119h-600c-32-5-32-30 0-35h605c62 0 118-71 139-119h-665c-32-5-32-35 0-37h677c55 0 106-57 142-119zM0 636h954c35 176 156 323 399 424-28 84-122 161-218 161H616c-79 0-142-67-167-121h527c31-5 31-30 3-35H459c-66 0-126-58-161-119h601c32-5 32-30 0-35H293c-61 0-117-71-139-119h666c32-5 32-35 0-37H141C88 755 38 698 0 636zm1219-526c35 29 74 56 116 74 35-71 88-131 144-184-96 10-186 48-260 110zm-169 349h214c2-89 22-166 56-245-46-20-89-48-129-80-86 87-136 201-141 325zm462-200v200h-214c2-79 20-159 55-233 50 20 104 31 159 33zm325-149c-35 29-75 56-116 74-38-71-85-129-144-184 96 10 185 48 260 110zm169 349h-214c-2-86-22-166-55-245 45-20 88-48 128-80 89 92 136 204 141 325zm-459-200v200h210c0-81-20-159-54-233-50 20-105 31-156 33zm-328 583c35-27 74-57 116-72 38 72 85 131 144 184-96-13-186-48-260-112zm-169-348h214c2 87 22 164 56 246-46 20-89 47-129 80-83-88-136-202-141-326zm462 202V494h-214c2 79 20 162 55 231 50-18 104-29 159-29zm325 146c-32-27-75-55-116-72-38 72-85 131-144 184 96-13 185-48 260-112zm169-348h-214c-2 87-20 167-55 246 45 20 88 47 128 80 84-88 136-204 141-326zm-459 202V494h210c0 79-20 159-54 231-47-18-105-29-156-29zm-35-676c-58 45-109 109-144 176 47 15 94 28 144 28V20zm35 0c54 45 106 109 141 176-47 18-95 28-141 28V20zm-35 914c-58-46-109-109-144-177 47-17 94-27 144-27v204zm35 2c54-48 106-111 141-179-47-15-95-27-141-27v206z" id="Layer_x0020_1"/></svg>