<svg xmlns="http://www.w3.org/2000/svg" width="590.514" height="188.976" viewBox="0 0 6151 1969" shape-rendering="geometricPrecision" text-rendering="geometricPrecision" image-rendering="optimizeQuality" fill-rule="evenodd" clip-rule="evenodd"><defs><style>.fil0{fill:#1c67ab}.fil1{fill:#f9a236;fill-rule:nonzero}</style></defs><g id="Layer_x0020_1"><g id="_755222704"><path class="fil0" d="M1914 1559l85 21c-17 69-49 121-95 158-47 36-104 55-172 55-99 0-176-33-230-97-49-60-74-139-74-236s29-176 88-236c57-59 129-88 217-88 65 0 119 16 163 48 44 31 75 77 92 137l-84 20c-15-46-36-79-64-101-28-21-64-32-109-32-68 0-122 26-162 77-35 46-53 104-53 174 0 79 20 142 58 190 39 48 89 72 151 72 48 0 88-14 120-40 34-28 57-69 69-122zm200-322v-90h79v90h-79zm0 545v-460h79v460h-79zm391-70l12 69c-24 4-44 7-60 7-41 0-70-10-87-29-16-18-24-46-24-86v-290h-57v-61h57v-114l79-47v161h80v61h-80v268c0 24 3 40 7 48 6 11 19 16 38 16 10 0 21-1 35-3zm106 247l-9-73c18 4 33 7 46 7 24 0 42-6 54-18 14-13 26-37 38-73l7-19-177-461h85l97 266c11 30 23 66 34 107 9-37 20-72 33-105l100-268h79l-208 542c-11 30-26 53-44 71-24 22-52 34-84 34-15 0-32-4-51-10zm1214-400l85 21c-17 69-49 121-95 158-46 36-104 55-172 55-99 0-176-33-229-97-50-60-75-139-75-236s29-176 88-236c57-59 129-88 217-88 65 0 119 16 163 48 44 31 75 77 92 137l-84 20c-15-46-36-79-64-101-28-21-64-32-109-32-68 0-122 26-161 77-36 46-54 104-54 174 0 79 20 142 58 190 39 48 89 72 151 72 48 0 88-14 121-40 33-28 56-69 68-122zm520 75l81 10c-13 47-37 84-72 109-35 26-79 39-133 39-69 0-123-20-163-61-40-42-60-100-60-175 0-76 19-136 59-179 40-44 93-66 159-66 64 0 115 21 153 63 40 43 60 102 60 177v21h-349c0 48 13 87 41 115 26 28 59 41 100 41 30 0 55-7 75-22s36-39 49-72zm-261-126h261c-4-47-18-80-42-103-21-20-50-29-86-29-37 0-68 11-93 35-27 24-40 57-40 97zm471 274v-460h71v65c34-50 84-76 149-76 52 0 91 15 117 45 29 31 43 79 43 143v283h-80v-280c0-42-8-73-24-93-15-20-40-30-73-30-38 0-67 10-87 30-25 25-37 66-37 122v251h-79zm703-70l12 69c-24 4-44 7-61 7-40 0-69-10-86-29-16-18-24-46-24-86v-290h-58v-61h58v-114l79-47v161h80v61h-80v268c0 24 2 40 7 48 6 11 19 16 38 16 10 0 21-1 35-3zm430-78l82 10c-14 47-38 84-73 109-34 26-79 39-133 39-69 0-123-20-163-61-40-42-60-100-60-175 0-76 19-136 59-179 40-44 93-66 159-66 64 0 115 21 154 63 39 43 59 102 59 177v21h-349c0 48 13 87 41 115 26 28 59 41 100 41 30 0 55-7 75-22s36-39 49-72zm-261-126h261c-4-47-18-80-42-103-21-20-50-29-86-29-37 0-68 11-93 35-27 24-40 57-40 97zm470 274v-460h71v70c13-27 28-47 45-60 17-14 36-21 56-21 27 0 54 9 82 26l-27 72c-20-11-39-17-59-17-59 0-89 50-89 149v241h-79z"/><path class="fil1" d="M938 159C837 51 707 0 556 0 404 0 274 51 159 159 51 267 0 397 0 548c0 159 51 282 159 390s238 159 389 159c152 0 282-51 390-159s159-231 159-390c0-151-51-281-159-389zM541 51c144 0 260 50 361 144 94 101 144 216 144 353s-50 253-144 354c-101 94-217 144-354 144s-252-50-353-144C101 801 51 685 51 548s50-252 144-353C296 101 411 51 541 51z"/><path class="fil1" d="M180 426l-7 29-79-22-7 29c57 14 129 50 223 101 166 101 339 180 520 223l50-43h-36c-108 0-195-36-260-108 73-36 152-58 246-58l57 7 22-28h-65l-151 7 7-22h223l22-29H714l8-14h238l14-22-238-7 7-22 245 8 22-22-195-14-195 14c-28 86-86 130-173 130-36 0-79-15-130-44l-21-14 7-7 115 43 8-14-246-101zm2652-183h29V128h-94c-122 0-187 65-187 195v14h-72v116h72v411h173V453h101V337h-101v-14c0-51 29-80 79-80zm123 94h-72v116h72v252c0 108 51 159 152 159h129V741h-36l-57-7c-8-14-15-36-15-72V453h101V337h-101V171h-173v166zm491-209h-174v736h174V561c0-72 28-108 86-108 51 0 72 36 72 108v303h173V561c0-72-7-123-21-152-36-57-87-86-166-86-72 0-116 22-144 72V128zm656 303c51 0 72 14 72 51 0 21-14 36-50 43l-152 29c-101 29-151 86-151 166 0 50 14 86 57 122 37 29 87 44 145 44 57 0 115-22 173-65l7 43h159l-15-72V518c0-137-79-202-245-202s-252 65-252 187h158c0-43 29-72 94-72zm-29 209l108-29v44c0 72-36 108-122 108-43 0-72-14-72-51 0-36 29-57 86-72zm491-303h-159v527h173V561c0-72 29-108 87-108 50 0 79 36 79 108v303h173V561c0-65-14-116-28-152-37-57-87-86-166-86-58 0-116 22-152 72l-7-58zm584 137c0-29 22-43 65-43 51 0 72 22 80 72h166l-29-94c-29-64-101-93-210-93-173 0-252 57-252 180 0 79 58 130 180 159h51c65 14 101 36 101 65s-29 43-87 43-94-22-94-65v-7h-166c0 130 87 195 275 195 158 0 245-58 245-181 0-86-65-144-188-166l-57-14c-51-7-80-22-80-51zm635-43c51 0 72 14 72 51 0 21-14 36-50 43l-152 29c-101 29-151 86-151 166 0 50 14 86 58 122 36 29 86 44 144 44s115-22 173-65l7 43h159l-15-72V518c0-137-79-202-245-202-159 0-245 65-252 187h158c0-43 29-72 94-72zm-29 209l109-29v44c0 72-37 108-123 108-43 0-72-14-72-51 0-36 29-57 86-72zM1620 128h-180v736h490V720h-310zm852 209h-173v303c0 72-29 109-87 109-51 0-72-37-72-109V337h-173v318c0 57 7 108 28 137 29 58 80 86 166 86 58 0 109-21 152-65v51h159V337z"/></g></g></svg>