<svg xmlns="http://www.w3.org/2000/svg" width="655.237" height="151.181" viewBox="0 0 6825 1575" shape-rendering="geometricPrecision" text-rendering="geometricPrecision" image-rendering="optimizeQuality" fill-rule="evenodd" clip-rule="evenodd"><defs><style>.fil0{fill:#713434}.fil1{fill:#7e4646}.fil3{fill:#cdb8b8}.fil2{fill:#fefefe}</style></defs><g id="Layer_x0020_1"><g id="_755219728"><path class="fil0" d="M2019 31c-7 107-9 24 52 80 10 549-55 189-54 391h228c1-136-5-18-45-89-17-30-11-74-6-115 63 0 132 124 184 204l155-1c0-128 1 8-120-149l-48-69c128-35 174-180 51-240-60-29-338-33-397-12zm2340 61l3 289c-38 95-59-25-55 103l227 2c6-168-62 66-51-207 59 8 158 155 186 206l152 1c4-131-69-21-165-215 116-48 184-166 57-240-76-43-301-27-403-23-12 89-6 45 49 84zM2560 46c27 129 66-109 59 291-3 192-57 15-58 165h193c1-74 7-22-16-59-45-71-39 45-37-271l172 329 99-1 1-362c27-125 49 36 57-115l-144 1c-60 12-19-4-51 22 27 131 59-101 55 230-96-96-67-315-292-249-39 12-12-2-38 19zM6358 8c-4 143 27-11 54 114v244c-24 128-60-24-55 120l193-2c1-38 11-34-16-62l-39-25V152c60 70 122 304 199 334l72-2 2-392c60-43 62 6 54-82l-185-4c-19 106 39 18 49 116v132l-47-63c-10-17-20-42-29-61-20-42-36-84-68-121l-184-1zm-1505 8c-3 95-9 28 51 76l3 305c-51 45-58-1-55 89h408l61-177c-124-47-36 46-163 90-147 51-134-7-134-123 156-21-9 51 138 61V135c-147 10 19 81-138 61l2-110c159-14 147 20 187 56 48 44-22 35 65 24 25-43-13-111-37-160-92 0-319-19-388 10zm-3335 7c-4 107-8 37 53 83l1 291c-35 94-56-27-56 105h410l60-178c-105-35-48 4-114 64-39 35-112 46-179 28l-5-123c153-27-6 49 139 60V151c-146 11 17 89-138 60l2-109c240-24 139 106 265 77-2-57-24-108-51-157l-387 1zm2341 69l3 289c-40 94-59-23-56 101l408 4 43-185c-117-37 11 117-271 106l-9-138c70 4 68 24 88 45 22 23-31 30 52 20V138c-94-13-6 23-94 57-28 11-14 6-44 8l4-120c236 0 145 98 261 82-1-60-25-118-50-159l-385 1c-10 93-7 42 50 85zM486 496l181 7c4-61-1-35-19-62-47-69 3-86 5-83h126c3 1 8 2 12 4 53 148-28-8-28 140h219c3-98-18-30-61-136-18-45-37-97-54-143-19-51-34-96-55-145-30-72-32-60-126-53-55 102-113 301-143 359-49 94-57 7-57 112zm238-366l25 72 25 71H674l25-71 25-72zm5105 355l179 1c4-137-87-19-35-123 24-49 99-30 160-30 41 175-33 1-28 150l220 3c3-106-3-29-51-111-30-51-96-284-148-369h-97c-55 98-108 291-143 359-47 92-60 13-57 120zm239-355l26 72 25 71h-101l25-71 25-72zM1183 501l109 1c27-76 60-157 91-238 101-268 120-132 96-242l-169 1c-25 150 83-21 20 156-21 61-45 131-74 176-27-41-46-109-68-166-68-184 47-18 17-167l-213 1c-15 118-5-30 94 224 33 85 67 168 97 254zm4339-15h107l139-361c48-97 67-11 52-119h-172c-24 159 133-69-53 342-30-46-47-118-67-172-69-192 38-19 17-169h-215c-13 99 0 31 46 108 18 29 34 83 49 119 34 87 62 167 97 252zm-2102 0h226c3-90-3-44-52-89-34-72 81-252 134-301 36-33 52-22 46-85l-181-5c-7 59-7 23 8 56 32 73-39-64 10 17 12 19 8-13 17 25-25 35-43 72-75 103l-66-103c12-50 45-18 33-98l-227 2c-7 97-13-10 133 214 26 39 54 69 51 129-7 140-62-9-57 135zM0 178c132 29 32-63 180-86l2 289c-23 131-55-24-55 121h228c1-175-85 111-53-405 138-3 48 119 174 81L425 8c-73 8-115 15-189 15-76 0-123-13-176-15L0 178zm3096 1079c113 106 217 200 303 318 54-23 231-228 328-318-27-71-208-216-305-344-45 21-309 298-326 344z"/><path class="fil1" d="M923 1154c210-48 495-151 773-98l-46 35c-242 276 335 426 199 72-91-19-199 32-90 104 51-19 5-2 23-30 27-42-24-20 32-39 31 130-70 128-154 90-96-392 609-132 806-82 177 45 133 96 238 173 64-37 92-109 146-133 94-42 149 25 247-43l-49-18c-15-2-47-2-63-2-248 3-128-68-275-142-143 137-103 164-362 88-147-44-295-88-452-109-272-35-802-35-973 134z"/><path class="fil0" d="M4113 1042c-50 33-94 108-129 128-58 35-177 12-255 19 75 92 128 12 232 52 40 15 121 109 152 134 31-33 64-55 97-91 89-94 240-101 451-161 193-55 582-132 505 168-58 25-83 36-157 17l-4-110c9 1 14 2 15 7l20 24c5 8-52 7 24 37 50-31 47-18 29-93-189-82-193 211 1 191 77-7 126-55 131-130 3-43-4-68-25-103-21-34-50-52-43-81 278-32 505 37 744 103-174-163-696-168-969-132-163 21-305 66-456 110-296 85-202 49-363-89z"/><path class="fil2" d="M3164 1253l252 251 243-251c-38-81-179-198-249-269-68 80-206 183-246 269z"/><path class="fil0" d="M3246 1246l152 168c60-20 51-25 94-74 31-35 55-62 83-93-43-56-108-146-176-174l-153 173z"/><path class="fil3" d="M4008 1202c28 54 63 84 107 111 56-24 85-56 101-121-35-33-54-63-101-83l-107 93zm-695 49l83 101c66-20 74-44 114-101l-88-113c-53 22-81 55-109 113z"/><path class="fil2" d="M2190 222c76 7 167 13 173-56 6-78-96-67-167-63l-6 119zm2290-13c240 0 229-124 51-124h-51v124z"/></g></g></svg>