<svg xmlns="http://www.w3.org/2000/svg" width="366.459" height="189.118" viewBox="0 0 3817 1970" shape-rendering="geometricPrecision" text-rendering="geometricPrecision" image-rendering="optimizeQuality" fill-rule="evenodd" clip-rule="evenodd"><defs><style>.str0{stroke:#2957a4;stroke-width:3}.fil0{fill:#2858a1}</style></defs><g id="Layer_x0020_1"><g id="_261761760"><path class="fil0" d="M125 1799l50 4-2 22-50-5c-8 0-14 1-18 4-5 3-8 7-9 11-2 5-3 10-4 16l-4 46-17-2 4-49c1-7 0-14-3-21s-10-10-21-11c-18-2-28 6-29 25l-5 52-17-2 4-46c1-10 2-18 5-25 2-6 5-12 8-16 4-4 8-7 14-8 3-1 6-2 9-2h11c13 1 21 5 26 11 5 5 7 10 8 14 0-2 2-4 4-7s6-6 12-9c6-2 14-3 24-2zm-51-117l3-21 79 14c7 1 13 0 17-3 5-3 8-8 9-13 1-4 0-8-2-12-1-5-4-9-8-12-3-3-8-5-13-6l-74-13 4-20 114 20-4 20-16-3c4 3 8 7 11 13s3 13 2 20c-1 6-2 11-4 14-2 4-5 6-7 8-1 1-2 2-4 2-1 1-3 2-5 3-1 0-2 1-3 1-1 1-2 2-3 2 4 3 8 8 11 15 4 6 5 13 4 20-2 9-4 15-8 20s-8 8-13 10-10 2-15 1l-87-15 4-19 78 14c7 1 12 0 17-4 4-3 7-8 8-14 0-4 0-8-1-12-2-5-4-8-8-11-3-4-7-6-12-6l-74-13zm177-71l-14-3 1-4c1-5 0-11-2-16-2-6-7-9-16-12l-122-28 4-19 121 28c9 2 15 5 20 11 5 5 8 10 10 17 1 7 1 13-1 20l-1 6zm-122-185l5-20 77 21c7 2 13 1 18-2 5-2 8-7 10-12 1-4 1-8-1-12-1-5-3-9-7-12-3-4-7-7-12-8l-73-19 6-20 111 30-5 20-16-5c4 3 7 8 9 14 3 7 3 13 1 20-1 6-3 11-5 14-3 3-5 6-8 7-1 1-2 2-4 2-1 1-3 2-5 2-1 1-3 1-3 2-2 0-3 1-3 1 4 3 7 8 10 15 3 8 3 14 1 21-2 8-5 15-9 19-5 5-9 8-14 9-6 1-10 2-15 0l-85-23 5-18 77 20c6 2 12 1 17-2 4-3 7-7 9-13 1-4 1-8 0-13-1-4-3-8-6-11-3-4-7-6-12-7l-73-20zm127-170l-64-24 7-19 108 42-7 18-16-7c3 6 5 10 7 13 1 2 2 6 2 12 0 5-1 11-4 18s-6 12-11 16c-4 3-9 5-14 6s-9 0-14-2l-83-32 7-18 75 29c7 3 12 3 16 1 4-1 7-5 9-11 5-11 5-19 1-26s-11-13-19-16zm-4-161l15 7c-3-4-5-9-6-16-2-6-1-13 2-19 4-7 8-13 13-16 5-4 11-6 16-7 5 0 10 1 14 3l79 39-8 18-72-35c-6-3-12-4-17-2s-8 6-11 12c-2 3-2 7-2 12 1 4 3 9 6 13 3 5 6 8 11 10l64 32-9 18-9-4c-2-1-3-2-4-2 0-1-1-1-1-1 3 4 5 9 6 16 1 6 0 12-3 19s-8 13-13 16c-5 4-10 6-15 6-5 1-10 0-14-2l-80-39 9-17 71 35c6 3 12 3 17 1s9-6 12-12c1-3 2-7 2-12 0-4-1-9-4-12-2-4-6-7-10-10l-68-33 9-18zm85-156l10-18 69 41c6 4 11 5 17 3 6-1 10-4 13-9 2-3 3-7 3-12 0-4-1-9-4-13-2-5-5-8-9-11l-65-39 11-17 99 59-11 18-14-8c3 3 5 9 5 16 1 6-1 13-4 19-3 5-7 9-10 11-3 3-6 5-9 6h-4c-2 1-4 1-5 1h-4c-2 0-3 0-3 1 2 4 4 10 5 17 1 8-1 15-5 21-4 7-9 12-14 15s-11 5-16 5-10-1-14-4l-75-45 10-17 68 41c6 4 11 4 16 3 6-2 10-6 13-11 2-3 3-7 4-12 0-4-1-9-3-13s-5-7-10-10l-64-38zm216-116l-11 15-15-11 2 8c1 3 1 7 1 11 0 3 0 7-2 11-1 4-4 8-7 12-5 6-10 11-15 13s-10 3-15 2c-5 0-9-2-13-5l-80-60c-6-4-10-9-12-14-3-4-4-9-4-15 0-5 0-10 2-14 1-5 4-9 7-13l23-31 12 10-21 29c-3 3-5 9-6 15 0 6 4 12 12 18l72 54c5 4 10 6 15 6 4-1 8-3 12-8 5-7 7-13 8-18 0-6-1-11-4-16-2-4-6-8-11-12l-54-41 12-16 92 70zm-16-83l86 70-12 15-166-135 12-15 53 43c-1-3-2-6-2-8-1-2-1-4-1-6-1-3 0-7 1-12 2-5 5-10 10-15 3-5 7-8 11-11 4-2 8-3 12-3s8 0 12 1c3 2 6 3 9 5l68 56-12 15-62-50c-11-9-20-9-28 1-5 6-7 12-7 18-1 6 1 12 4 17 3 6 7 10 12 14zm30-193l31-31 84 85c7 6 13 10 19 11 5 1 10 0 15-2 4-3 8-6 12-10 3-4 7-8 9-12s3-9 2-15c0-6-4-12-10-18l-33-33 15-16 34 35c4 4 8 9 10 14s4 11 4 18c0 6-2 12-5 19s-8 14-14 20c-9 9-18 14-27 17-8 3-17 3-25 1-7-3-14-7-20-12l-74-74-15 15-12-12zm252-117l52 62-14 12-12-14v11c0 2 0 5-1 8s-2 6-5 10c-2 4-6 8-10 11-6 5-11 8-17 9s-11 0-15-1c-5-2-9-5-12-8l-89-107 15-12 32 38 56-47 9 11-56 47 43 50c4 6 9 9 13 9 4 1 9-1 14-5 9-8 13-15 13-23s-3-16-9-23l-22-26 15-12zm58-21l66 88-16 11-98-130 15-11 11 14v-14c1-4 2-8 5-12s7-9 13-13c4-3 9-6 13-7 5-1 9-1 13-1 4 1 7 3 11 4 3 2 5 5 7 8l53 70-15 12-48-64c-9-11-18-13-27-6-10 7-14 16-13 25s4 18 10 26zm167-116l28 45 19-11 7 12-19 12 25 41-18 10-32-53c0 7-2 13-5 18s-7 10-14 14-14 6-20 6c-7 0-14-1-20-4s-12-7-18-12c-2-3-5-6-7-9-2-2-4-5-6-8-7-11-11-22-12-32s1-19 5-28c4-8 10-15 18-20 14-8 27-11 39-8 11 3 21 12 30 27zm-11 18c-8-13-15-22-23-26s-17-3-25 2c-7 4-11 9-13 15s-2 12-1 19c2 7 5 14 10 22 7 11 15 19 24 23 8 4 18 3 27-2 7-5 11-11 12-20s-3-19-11-33zm164-22l-17 8-8-18-2 9c-1 3-2 7-4 10-1 3-4 6-7 9s-7 5-12 8c-7 3-14 4-19 4-6-1-11-2-15-5s-7-7-9-11l-42-91c-3-6-5-12-5-17 1-6 2-11 4-15 2-5 5-9 9-12 3-4 7-6 11-8l36-17 6 14-33 16c-4 2-8 5-11 11-4 5-3 12 1 21l38 82c3 6 7 10 11 12 4 1 9 1 14-2 8-3 13-7 16-12s4-10 4-15c0-6-2-11-4-16l-29-62 18-8 49 105zm44-149l19-8 31 74c3 6 7 11 12 13 6 2 11 2 16 0 4-2 7-4 10-8 2-4 4-8 5-13 0-5 0-10-2-14l-29-70 19-8 45 107-19 8-7-15c0 5-1 10-5 16-3 6-8 10-15 13-6 2-10 3-14 4-4 0-8-1-11-2-1 0-2-1-4-2-1-1-3-1-4-2-2-1-3-2-4-2l-2-2c-1 5-3 11-7 18-3 6-9 11-15 14-8 3-15 4-21 4-6-1-11-3-15-6-5-3-8-7-10-11l-34-82 18-7 31 73c3 7 7 10 12 12s11 2 16-1c4-1 7-4 10-8 3-3 5-7 5-12 1-4 1-9-1-13l-30-70zm276 16c8-2 16-5 23-10s9-12 7-23c-2-6-5-11-11-14-5-4-11-6-18-8-6-1-16-3-29-5-16-3-29-6-38-10s-14-10-17-19c-3-14 0-26 7-36 8-11 21-18 38-22 10-2 18-3 26-3 7 1 14 3 19 5 6 3 11 7 14 11 4 5 6 10 7 16l4 14-21 5-3-13c-2-8-6-13-11-16-6-3-11-4-16-4-6 0-11 1-15 2-9 2-16 5-23 9-6 5-8 12-6 22 1 3 4 7 8 9 3 3 8 5 14 6 5 1 12 3 22 4 14 3 24 5 33 7 8 2 16 6 23 10 7 5 11 12 13 21 2 7 2 14 1 20-2 6-5 12-9 17s-9 10-16 13c-4 2-7 4-11 5-3 2-7 3-11 4-12 3-24 3-34 1s-19-6-26-12-11-12-13-20l-3-14 21-5 3 13c2 8 6 13 12 16 7 3 14 5 20 5h9c3 0 5-1 7-1zm106-71l8 61-20 3-14-115 19-2 2 17c2-2 3-4 4-6 2-2 3-4 4-5 2-3 5-6 10-8 4-3 10-4 17-5 6-1 11-1 15 1 5 1 9 3 12 5 3 3 5 6 7 9s3 7 3 10l11 88-20 2-9-79c-2-14-9-20-21-19-12 2-19 7-23 15-4 9-6 18-5 28zm125-70l7 101 38-3 1 14-57 4-8-115 19-1zm90 46l2 110h-19l-3-163 19-1v18c1-2 3-4 5-6 1-2 3-4 4-5 2-3 6-5 10-7 5-2 11-3 18-3 6 0 11 1 15 2 5 2 8 4 11 7s5 7 6 10c2 3 2 7 2 10l2 88-20 1-1-80c0-14-7-21-19-21-11 1-20 5-25 13-4 8-7 17-7 27zm155 65c-8 0-15-2-22-5s-13-7-18-13c-5-5-8-12-11-19-3-8-4-16-4-25 1-7 2-14 4-21s6-13 10-19c5-6 11-11 18-14 7-4 16-5 25-5 13 0 23 3 32 9 8 6 14 14 18 23 3 9 5 18 5 28 0 9-2 18-5 25-3 8-6 14-11 20-5 5-11 9-18 12s-15 4-23 4zm2-105c-7 0-14 2-19 6-6 4-10 9-13 16-4 7-5 14-5 22-1 9 1 16 4 23 3 6 7 12 13 16 5 4 12 6 19 6s13-2 19-5c5-3 9-8 13-15 3-7 4-15 5-25 0-6-1-12-3-17-1-5-4-10-7-14-6-8-15-12-26-13zm164 4l20 3-10 79c-1 7 1 13 4 17 4 5 8 8 14 8 4 1 8 0 12-2s8-5 11-9 5-8 5-13l10-74 20 2-20 162-20-2 8-64c-3 4-7 8-13 11-6 4-12 5-19 4-6-1-11-2-15-4-3-2-6-4-8-6-1-1-2-2-3-4-1-1-1-3-2-4-1-2-2-3-2-4-1-1-1-2-2-2-3 4-7 8-14 11-6 4-13 6-20 5-9-1-15-4-20-7-5-4-9-8-11-13s-3-9-2-14l10-88 20 3-10 79c0 4 0 9 2 12 1 4 3 7 7 9 3 2 6 4 10 4 4 1 8 0 12-2s8-5 11-9 5-8 5-13l10-75zm208 77l-18 79-19-4 4-18c-1 1-2 2-4 3l-4 4c-2 1-5 2-7 4-3 1-7 2-12 2-4 0-9 0-14-1-7-2-13-5-18-9-4-4-7-8-8-13s-2-9 0-14l31-135 19 4-11 49 71 16-3 14-71-17-15 65c-2 7-2 12 1 16 2 4 6 7 12 8 11 3 20 1 27-4 6-5 10-12 12-21l8-32 19 4zm53 37l-32 105-19-6 48-156 18 5-5 17c2-1 4-3 7-4 2-2 3-3 5-3 3-2 7-3 12-3 5-1 11 0 18 2 6 2 10 4 14 7 3 3 6 6 7 10 2 3 3 7 3 11 1 3 0 7-1 10l-25 85-19-6 23-76c4-14 0-22-11-26-11-3-20-2-28 4-7 6-12 14-15 24zm186 13l19 8-31 73c-3 7-3 13-1 18s6 9 11 11c3 2 7 2 12 2 5-1 9-3 13-6s7-6 9-11l29-69 19 8-45 106-19-8 7-15c-4 4-9 6-16 8-6 1-13 1-19-2s-10-5-13-8-5-5-6-8c-1-1-1-3-2-4 0-2-1-4-1-6 0-1-1-2-1-3 0-2 0-3-1-3-4 3-9 5-17 7-7 2-14 2-20-1-8-3-14-7-18-12s-6-10-7-15c0-6 0-10 2-15l35-81 18 8-32 73c-2 6-2 12 0 17s7 8 12 11c4 1 8 2 13 2 4-1 8-2 12-5s7-6 9-11l29-69zm195 98l-8 15c4-3 10-5 16-6 7-1 13 0 19 3 8 4 13 9 16 14 4 5 6 10 6 15 0 6-1 10-3 15l-41 78-18-10 37-70c3-6 4-12 2-17s-5-9-11-12c-3-1-7-2-12-2-5 1-9 2-14 5-4 3-8 7-10 11l-33 63-18-9 4-9c1-2 2-3 2-4s1-1 1-2c-4 3-10 5-16 6s-12 0-19-3c-7-4-13-9-16-14s-5-10-6-16c0-5 1-9 3-14l42-78 17 10-37 70c-3 6-4 11-2 17 2 5 6 9 11 12 4 2 8 2 12 2 5 0 9-1 13-3s7-6 9-10l36-66 18 9zm82 117l-34 51-17-11 65-95 16 10-10 15c2-1 5-2 7-3 3 0 5-1 6-1 3-1 8-1 13 0 5 2 10 4 16 8 5 3 9 7 11 11 3 3 4 7 5 11 0 4 0 8-1 12 0 3-2 7-4 10l-49 73-16-11 44-66c8-12 7-21-3-28-10-6-19-8-27-4-9 4-16 10-22 18zm105 78l-71 84-15-13 105-125 15 12-12 14c3-1 6-1 8-2 3 0 5 0 6-1 4 0 8 1 13 2 5 2 10 5 15 10 5 3 8 7 10 11s3 8 3 12c1 5 0 8-1 12-1 3-3 6-5 9l-57 68-15-13 51-61c9-11 9-20 0-28-9-7-18-10-27-7s-17 8-23 16zm107 175l-14-12 12-14-8 1c-4 1-7 1-11 1-3 0-7-1-11-3s-8-5-12-9c-5-5-9-10-11-15-2-6-2-11-1-16s3-9 6-12l67-75c5-5 10-9 15-11s10-2 15-2 10 1 14 3c5 2 9 5 12 8l29 26-10 11-27-24c-4-3-9-5-15-6s-12 2-19 9l-60 67c-5 6-7 10-7 15 0 4 2 8 7 13 6 5 12 8 17 9 6 1 11 0 16-2s9-6 13-10l45-51 15 14-77 85zm144 38l-60 54-13-14 14-12h-11c-2 1-5 0-8 0-3-1-7-2-10-5-4-2-8-5-11-9-6-6-9-12-10-17-1-6-1-11 1-16 1-4 4-8 7-11l103-93 14 14-37 34 48 54-10 9-49-54-49 44c-5 5-8 10-8 14-1 5 1 9 5 14 8 8 16 12 24 12s15-4 22-10l25-22 13 14zm23 57l-85 69-12-16 127-102 11 14-13 11h8c2 0 4 0 6 1 3 0 7 1 11 4 5 2 9 6 14 12 4 5 6 9 7 13 2 5 2 9 1 13 0 4-1 7-3 11-2 3-4 6-7 8l-69 55-12-15 62-50c11-9 12-18 5-28-7-9-16-13-25-11-9 1-18 4-26 11zm78 100l-89 67-12-16 171-129 12 16-54 41h14c3 1 7 2 11 5 4 2 9 7 13 12s6 10 7 14c1 5 1 9 0 13 0 3-2 7-4 10s-4 6-7 8l-70 53-12-16 64-47c11-9 13-18 5-28-4-6-10-10-15-12-6-1-12-1-18 1-6 1-11 4-16 8zm121 215l41-22c4-3 7-5 8-9 2-4 3-9 5-17 1-7 3-12 5-17 2-4 6-7 11-10s9-4 13-2c4 1 7 3 11 7 3 4 6 8 9 14l5 8c0 1 1 2 2 4 0 1 1 3 2 4l-14 7c-1-1-2-2-3-5-1-2-2-4-3-5l-3-7c-2-3-4-6-5-7-2-1-4-2-6-1-3 2-5 5-6 11l-5 15c-1 5-3 10-5 15-3 5-7 9-12 12l-83 46-9-17 16-9-9-2c-3 0-6-1-10-2-3-2-6-4-9-7s-6-7-9-12c-3-6-5-13-5-18 0-6 1-11 4-15 1-2 3-4 4-6 2-2 4-3 6-4l78-43 10 17-71 39c-6 3-10 7-11 11-1 5-1 9 2 15 4 7 9 12 14 14 5 3 11 4 16 4 6-1 11-3 16-6zm45 62l-100 48-8-17 192-94 9 18-61 30c3 0 6 1 8 1 2 1 4 1 6 2 3 1 6 3 10 6 3 4 7 9 10 15s4 10 4 15 0 9-2 12c-1 4-3 7-6 10-2 3-5 5-8 6l-80 39-8-18 71-35c13-6 17-14 11-25-3-8-8-12-13-15s-11-4-17-3c-6 0-12 2-18 5zm53 116l-57 24-8-18 106-45 8 18-17 7c3 0 5 1 8 2 2 0 4 1 6 2 3 1 7 3 10 7 4 4 7 9 10 15 2 6 3 11 3 15 0 5-1 9-2 13-2 3-4 6-7 9-2 2-5 4-9 6l-81 34-7-18 73-31c13-5 17-14 12-25-4-11-11-17-21-18-9-2-18-1-27 3zm99 107l-96 31 11 36-13 5-18-55 110-35 6 18zm-22 180h-16c-7-1-15-3-23-8s-14-13-17-25c-4-15-2-27 7-36l-59 16-5-19 158-42 5 18-15 3c3 1 8 3 13 7 6 3 10 10 13 19 3 14 2 25-3 35-6 9-13 16-22 21-8 4-16 7-23 9l3 11-13 3-3-12zm-21-77c-6 1-10 4-14 8s-6 8-8 14c-1 5-1 10 0 15 2 5 5 10 8 14 4 4 9 6 14 8 3 1 6 1 8 1 3 1 5 0 8-1l-16-59zm16-5l-3 1 17 61 3-1c8-2 14-5 20-9s10-9 13-15c2-6 3-13 1-20-2-6-5-10-10-14-5-3-10-5-18-6-7 0-14 1-23 3zm-81 118l14-3 1 4c1 5 4 10 8 14s11 5 20 3l122-28 5 19-121 28c-9 2-16 2-23-1-6-2-12-6-16-11-4-6-7-12-8-18l-2-7zm131 80l-61 11-3-20 114-20 3 19-18 3c3 1 5 2 8 4 2 1 3 2 5 3 3 2 5 5 8 9 3 5 5 10 6 17 1 6 1 11 0 16-1 4-3 8-5 11-3 3-6 6-9 8s-6 3-10 4l-86 15-4-20 78-13c14-3 20-10 18-22-2-11-7-19-16-22-9-4-18-5-28-3zm72 118l-101 13 5 37-14 2-7-57 114-14 3 19zm-100 171l-1-18 18-2-7-5c-3-2-6-4-8-7-2-2-4-5-6-9-2-5-3-9-3-15-1-7 0-14 3-19 2-5 5-9 9-12 5-3 9-4 14-5l99-8c7-1 13 0 18 2 5 1 10 4 13 8 4 4 6 8 8 12 2 5 3 9 4 14l3 39-15 1-3-36c-1-5-3-10-7-15-3-5-10-7-20-6l-90 8c-7 1-12 3-15 6s-4 8-4 14c1 8 3 14 7 19 3 4 7 7 12 9 6 2 11 2 17 2l68-6 1 19-115 10zm-3199 21l-118-4 1-23 118 4c8 0 15-2 20-5 6-4 10-9 13-15s4-13 5-20c0-7-1-14-4-20-2-7-6-12-11-16-6-4-12-6-20-6l-118-5 1-23 118 4c11 1 20 4 28 11 8 6 14 14 18 24 4 11 6 21 5 32 0 11-2 20-7 30-4 9-10 16-19 22-8 6-18 9-30 10zm52-161l-118-17 2-19 16 2c-5-2-9-8-11-16-3-9-4-18-2-27 0-6 2-12 5-16 3-5 7-9 12-12 5-2 12-3 19-2 2 0 3 1 4 1l86 12-2 19-84-11c-4-1-8 0-11 1-3 2-6 4-8 7s-4 7-4 10c-1 6 0 11 2 17 2 5 6 10 11 14s11 7 19 8l67 9-3 20zm18-124l-118-23 4-19 118 23-4 19zm-139-27l-24-5 3-19 25 5-4 19zm91-28c-12-3-23-7-32-13-8-5-15-13-19-22-4-10-4-21-1-34 2-9 6-17 12-24s14-12 25-15c11-2 24-2 39 1 7 2 15 5 23 10s14 12 19 22c5 9 6 21 4 34-1 1-1 2-1 4-4 16-12 27-23 34-12 6-27 7-46 3zm2-20c10 2 18 2 26 0 7-1 13-4 17-8s7-9 8-14c2-6 1-12-1-18s-6-11-12-16-13-8-22-10c-1 0-3-1-4-1-9-2-17-2-24 0-8 2-13 5-18 9-4 4-7 9-8 15-2 6-1 11 1 17s6 11 12 15c6 5 14 8 23 11h2zm83-100l-113-39 7-19 15 5c-5-3-7-9-8-18-1-8 0-17 2-26 3-6 5-11 9-15 4-5 9-8 14-9 6-2 12-1 19 1 2 1 3 1 3 2l83 28-6 19-80-28c-4-1-8-1-11 0-4 0-7 2-9 5-3 2-5 6-6 9-2 5-2 11-1 17s3 11 7 16c5 5 10 9 18 11l64 22-7 19zm13-197c-11-5-20-12-27-19-7-8-12-17-13-27-2-10 0-21 7-33 4-8 10-15 17-20 8-5 17-8 28-8s24 3 38 10c7 4 13 9 20 15 6 7 11 15 13 26 2 10 1 21-5 34 0 1-1 2-2 4-7 14-17 23-30 27-13 3-28 0-46-9zm8-18c9 4 17 6 24 6 8 0 14-1 19-4s9-7 12-11c2-6 3-11 3-18-1-6-4-12-8-18-5-6-11-11-19-15-1-1-3-2-4-2-8-4-16-6-23-6-8 0-14 1-19 4-6 4-10 8-12 13-3 5-4 10-3 17 1 6 3 12 8 18 4 5 11 11 20 15l2 1zm104-78l-90-52-8 14-16-9 8-13-14-9c-17-11-22-24-13-40 2-2 4-5 7-9l14 8c-1 1-2 2-2 3-1 2-2 3-2 3-2 3-3 6-2 9 0 3 2 5 7 9l15 8 10-17 15 9-9 17 89 52-9 17zm64-102l-97-70 11-16 97 70-11 16zm-115-83l-20-15 12-15 20 14-12 16zm143 41l-94-74 12-15 13 10c-4-5-4-11-2-20s6-17 11-24c4-5 9-9 13-12 5-3 11-4 16-4 6 1 12 3 18 8 1 1 2 2 3 2l69 54-12 16-67-52c-3-3-7-4-10-5-4 0-7 1-11 2-3 2-6 4-8 7-4 5-6 10-7 16-1 5 0 11 2 17 3 6 7 12 13 17l53 41-12 16zm24-142c-5-6-8-13-11-19-3-7-4-13-4-20 0-6 1-13 3-19s6-12 11-18c3-3 7-6 11-9 5-2 10-4 16-6 5-1 12-1 18 1 7 2 14 5 20 11l-13 14c-7-5-13-7-20-7-7 1-12 3-17 8-4 4-7 10-8 16-1 7-1 14 2 21 3 8 8 15 14 21l2 2c7 7 14 11 21 14 7 2 13 2 19 1 5-1 10-4 14-8 3-4 6-8 7-13s2-10 0-15c-1-5-3-10-7-14l14-14c6 6 11 14 13 22s2 16-1 24c-2 9-6 16-12 23-6 5-11 9-17 12-5 3-11 4-18 4-7 1-15-1-23-5-9-4-17-10-27-19-2-3-4-5-7-8zm94-78c-9-10-15-19-18-29-4-10-5-20-3-30 3-10 9-19 19-28 7-6 15-10 24-12s18-1 29 3c10 4 21 12 31 24 5 6 9 13 12 21 4 9 5 19 3 29-1 11-7 20-17 30-1 0-2 1-3 3-12 10-25 15-38 13-13-1-26-9-39-24zm13-15c7 7 14 12 21 15s13 4 19 4c6-1 11-3 15-7s7-9 9-15 2-13 0-20-6-14-12-21l-3-3c-6-7-13-12-20-15-6-2-13-3-19-2-6 0-11 3-16 7-4 3-7 8-9 14-1 6-1 13 1 20s6 14 13 21l1 2zm122-34l-69-98 16-11 10 13c-2-6-2-12 1-19s8-12 14-17c5-3 11-6 18-7s14 0 21 2c-1-6 0-12 4-18 3-6 8-12 15-16 5-4 10-6 16-7 5-2 11-1 16 1s10 6 15 12l52 75-16 11-47-67c-5-6-10-10-15-10-6-1-11 0-16 3-3 3-6 7-9 11-2 5-3 10-3 15 1 5 2 10 6 15l43 62-16 11-50-70c-3-5-7-7-12-8-5 0-10 1-15 5-4 2-7 6-9 10s-3 9-3 14 2 10 6 15l43 62-16 11zm154-105l-60-104 18-10 59 104-17 10zm-70-123l-13-21 17-10 13 21-17 10zm116 97l-55-107 18-8 7 14c-1-5 1-12 6-19 6-7 13-13 21-17 6-3 11-4 17-5 6 0 11 1 16 4s9 7 13 14c0 1 1 2 1 3l40 78-18 9-38-75c-2-4-4-7-7-8-4-2-7-3-11-3-3 0-7 1-11 3s-8 6-12 11c-3 5-5 10-5 17-1 6 1 13 4 20l31 60-17 9zm85-106c-4-10-6-20-7-28-1-9 0-17 2-24s6-13 11-18c5-6 12-10 20-13 4-1 8-2 12-2 5 1 9 1 13 3 3 1 6 3 10 5l-5-14 18-7 41 107c7 19 8 35 2 47-7 12-17 20-32 26-6 2-12 4-20 4-7 1-14 0-21-4-7-3-12-9-15-18l18-8c1 4 4 7 7 9 3 1 7 2 12 2 4 0 8 0 13-2s10-5 14-10c4-4 6-10 7-16 1-7 0-14-3-22 0-2-1-4-2-6-7 15-16 24-28 29-8 3-17 4-25 2-9-2-17-6-24-13-7-6-12-14-16-24-1-1-1-3-2-5zm18-13c4 8 7 14 11 19 4 6 8 10 12 13 4 2 8 4 12 5 4 0 8 0 11-2 5-2 9-5 13-10 3-6 5-12 6-19 0-7-1-15-4-23-1-2-1-3-2-4v-2c-5-12-11-20-19-24-8-5-16-6-24-3-5 2-9 6-12 10-4 5-6 11-7 17-1 7 0 15 3 23zm231-13l-34-144-54 12-4-17 128-30 4 18-51 12 34 144-23 5zm51-70c-2-12-2-23 0-34 1-10 6-19 13-26 7-8 17-12 30-15 9-1 18-1 27 2s17 9 23 18c7 9 12 21 15 36 1 7 1 16 0 25-2 9-6 18-13 26s-17 14-30 17h-4c-16 3-29 1-40-7-10-9-17-22-21-42zm19-5c3 9 6 17 10 23 5 6 10 11 15 13s11 3 16 2c6-1 11-4 16-8 4-4 8-10 10-17s2-15 1-24c-1-2-1-3-1-4-2-10-5-17-10-23-4-6-9-10-15-12-6-3-11-4-17-3s-11 4-15 8c-5 4-8 10-10 17-2 8-2 16 0 26v2zm123 9l-6-89 19-1 6 85c1 8 3 13 7 17 4 3 9 5 15 5 5-1 10-3 16-6 5-4 9-9 13-14 3-6 4-13 4-20l-5-71 19-2 9 120-20 1-1-12c-5 6-11 11-18 15-7 3-14 5-21 6-5 0-9 0-13-1-5-1-8-3-12-6-3-3-6-7-8-11-2-5-4-10-4-16zm127 25l2-120 20 1-1 16c4-5 7-8 9-11 3-3 6-5 10-7 4-1 8-2 14-2 1 0 3 0 5 1v21c-13 0-22 3-28 8-7 5-10 14-10 25l-1 68h-20zm141-86c1-9 4-18 9-26 5-9 11-17 19-24 7-7 17-12 27-15 11-3 22-4 35-3 9 1 18 4 27 8s17 10 23 18c7 8 13 17 16 29 3 11 4 25 3 40-1 12-5 23-9 33-5 10-12 18-20 26-8 7-18 12-29 15-12 3-24 4-38 3-16-2-29-8-39-17-11-10-18-22-22-37-3-15-4-31-2-50zm20 14c0 9 1 18 3 28 2 9 6 18 13 26s17 13 30 16c2 1 3 1 5 1 11 1 20 0 29-5 10-4 17-11 24-22 6-10 11-23 13-38v-5c1-10-1-19-5-29-3-9-9-17-17-23-7-6-17-10-28-11-7-1-14-1-21 1s-14 5-21 10c-6 5-11 12-16 20-4 9-7 19-9 31zm138 153l38-165 18 4-3 14c4-4 10-7 17-9 8-2 16-2 24 0 6 1 11 4 16 7s9 8 13 14 6 14 7 25c2 10 1 21-1 31-4 18-14 32-28 42-5 3-10 5-17 6-6 2-13 2-20 0-6-1-12-4-17-8-5-5-10-10-13-17l-15 61-19-5zm44-104c-2 10-2 19-1 26 2 7 4 13 8 18 5 4 9 7 15 8 5 1 11 1 17-1s11-6 16-11c4-6 7-12 9-20 1-2 1-4 1-6 1-10 1-17-1-24s-4-12-8-16-8-6-13-8c-6-1-11 0-17 2s-11 6-16 12c-4 5-8 12-10 20zm105 29c17-38 41-52 72-42 20 6 31 17 34 33s1 33-5 52l-83-27c-4 12-4 22 0 30 3 8 9 13 17 16 4 1 9 2 13 1 5 0 10-2 15-4 4-2 8-6 11-10l19 6c-3 8-7 14-13 18s-13 7-21 8-17 0-26-2c-10-4-18-8-23-14-6-6-10-12-12-19-3-7-4-14-3-21 0-7 1-13 3-20 1-1 1-2 2-5zm23-1l63 20c2-7 2-14 1-21-1-6-3-11-7-15-3-4-7-7-12-9-5-1-10-2-16 0-5 1-10 3-16 8-5 4-9 10-13 17zm84 104l49-109 18 8-6 15c4-3 9-5 12-7 4-1 8-2 12-2s8 1 13 3c1 1 3 2 5 3l-9 19c-11-5-21-6-29-3-8 2-14 9-19 19l-28 62-18-8zm77 1c3-5 7-9 11-12s9-5 16-5c7-1 15 1 26 4 11 5 20 8 25 9 5 2 9 2 11 1s4-3 6-7c1-1 2-2 2-4 1-1 1-2 2-3 1-2 0-5-2-8-1-3-4-6-8-9-4-4-7-6-11-8-7-4-13-5-19-4s-10 5-14 11l-16-8c1 0 1-2 2-3 3-5 7-10 12-13 5-4 12-5 19-5 8 0 16 2 25 6 6 4 12 8 18 13s10 11 13 17 3 11 0 16l-33 66c-4 6-2 11 3 14 1 0 2 0 3 1l-6 13-12-5c-2 0-3 0-4-1-4-2-6-5-7-9s-1-9 0-13c-9 2-18 3-25 2-8-1-14-2-20-5-10-5-17-13-20-23s-2-19 3-28zm82 12c-2 1-8 0-17-3s-16-6-20-7-9-1-14 0c-6 0-10 4-13 9-2 6-1 11 1 16 2 4 6 7 11 10 4 2 9 3 15 4 6 0 11 0 16-2 5-1 9-3 10-6l11-21zm29 70l46-72-13-9 11-16 13 9 18-27 16 10-17 27 16 11-11 16-16-10-41 63c-2 4-3 7-2 9 0 2 2 4 4 6l4 2c2 1 4 2 5 2l-10 15c-5-2-9-4-13-6-6-4-10-9-12-14s-1-10 2-16zm69-4c8-10 15-18 24-24 8-6 18-9 28-9 10-1 21 3 32 11 7 5 13 12 17 20 5 8 6 18 4 29-1 11-6 23-15 36-4 6-10 12-18 17-7 6-16 9-27 10s-22-2-33-10c-1 0-2-1-4-2-13-9-20-21-22-34s3-27 14-44zm18 10c-5 8-9 16-10 24-1 7-1 14 1 19s6 10 10 13c5 3 11 5 17 5 7 0 13-1 20-5 6-3 12-9 17-16 1-2 2-3 2-4 6-8 9-15 10-23 1-7 0-13-2-19-3-6-6-10-11-14-5-3-10-5-16-5s-13 2-19 6c-6 3-12 9-18 17l-1 2zm57 114l79-90 15 13-11 12c6-1 10-2 14-2 4-1 8 0 12 1 3 1 7 4 12 7 0 1 2 2 3 4l-14 16c-9-8-18-12-26-12-9 0-17 4-24 13l-45 51-15-13zm77 17l14 14c-5 7-7 13-6 21 1 7 5 13 10 18 4 3 7 6 12 8 4 2 8 3 12 3s7-2 10-4c4-5 5-10 3-15-2-6-7-15-14-26s-12-21-13-29c-1-7 1-15 8-22l3-3c8-6 15-10 24-9 8 0 18 5 29 13 6 6 11 12 14 17 4 6 6 12 6 20 0 7-3 15-10 23l-14-14c2-4 4-7 4-11 0-3-1-7-2-10-2-3-4-6-7-9s-6-5-11-7c-4-2-8-3-12-3-3 0-6 1-8 3-5 4-6 9-3 14 2 6 7 14 14 26 8 12 12 22 14 30 1 8-2 16-9 23 0 0 0 1-1 2-4 4-10 7-16 8-7 2-14 1-21-1-8-3-16-8-24-14-5-7-9-12-12-15-2-3-4-8-6-13-2-6-2-11 0-18 1-6 5-13 12-20zm144 120c9-8 19-13 29-17 10-3 20-3 30-1 10 3 19 10 27 21 6 7 9 15 11 24 1 9 0 19-5 29-4 10-13 20-25 30-6 4-13 8-22 11s-19 4-29 1c-10-2-20-8-29-18 0-1-1-2-3-4-9-13-13-25-11-38s11-26 27-38zm13 14c-7 6-13 13-16 20-3 6-5 13-4 19 0 5 2 11 5 15 4 4 9 8 15 10s13 2 20 1c7-2 14-5 21-11 2-1 3-2 4-3 7-6 12-12 15-19 4-6 5-13 4-19 0-6-2-11-6-16-3-4-8-8-14-10-6-1-12-2-20 0-7 2-14 6-22 12l-2 1zm26 129l84-61-10-13 15-10 9 13 13-10c18-11 32-10 42 5 2 2 4 5 6 9l-13 10c-1-1-2-2-2-3-1-2-2-3-2-3-2-3-5-5-7-5-3-1-6 0-11 2l-14 11 11 16-14 10-12-16-84 61-11-16zm62 88l175-23 12 24-120 130-12-22 35-38-28-56-51 8-11-23zm82 11l23 45 51-53-74 8zm-7 138l108-51 9 18-15 7c6 1 10 2 14 3 3 2 7 4 10 6 3 3 6 7 8 12 0 1 1 3 2 5l-20 9c-5-12-11-19-19-22-8-4-17-3-27 2l-62 29-8-18zm30 69l113-39 7 19-16 5c6 0 12 2 18 7s10 11 12 18c2 6 3 12 2 19s-3 13-8 20c6 0 12 3 17 8s9 12 11 19c2 6 3 11 3 17-1 6-2 11-6 16-3 4-9 8-16 10l-86 30-6-19 78-26c6-3 11-7 13-12 3-5 3-10 1-15s-4-9-8-12c-4-4-8-6-14-7-5-1-10-1-16 1l-70 24-7-18 81-28c6-2 9-6 11-10 2-5 2-10 0-16-2-4-4-8-8-11-3-4-7-6-12-7s-11-1-17 1l-71 25-6-19zm113 161c41-6 66 8 73 40 5 20 1 35-11 46-12 10-27 18-46 22l-20-85c-13 3-21 8-26 16-5 7-7 14-5 22 1 5 3 9 6 13s6 7 11 10c4 2 9 4 14 5l5 19c-8 1-16 1-22-2-7-3-13-8-18-14-5-7-9-15-11-24-2-10-2-19 0-27 2-7 5-14 10-20 4-5 10-10 16-13s12-6 19-7c1 0 3-1 5-1zm13 19l15 64c8-2 14-5 19-9 4-5 8-9 9-14 2-5 2-11 1-16s-4-9-7-13c-4-4-9-7-15-10-7-2-14-3-22-2zm-48 125l118-16 3 19-16 2c6 1 11 5 16 13 5 7 8 15 9 25 1 6 1 12-1 17-1 6-4 10-8 14-5 4-10 7-18 8h-3l-87 12-3-19 83-12c5-1 8-2 11-4 3-3 5-6 6-9 1-4 1-7 1-11-1-6-3-11-7-16-3-4-8-8-14-10-6-3-13-4-20-3l-68 10-2-20zm14 125l119-11 2 20-120 10-1-19zm140-13l25-2 2 20-25 2-2-20zm-105 58c6 1 11 2 16 5 4 2 8 6 11 12 4 6 6 14 8 25 0 12 1 21 2 27 1 5 3 8 5 10s4 3 8 3h9c2 0 4-2 6-5s3-7 5-11c1-5 2-10 2-14 0-7-2-14-5-18-3-5-9-8-16-8v-18h4c6 0 11 2 17 5 5 4 10 9 13 15 3 7 5 16 5 26 0 7-1 14-4 21-2 8-5 14-9 19s-9 8-15 7l-73-1c-7 0-11 3-11 9v3h-14l-2-12c0-2-1-3 0-5 0-4 1-7 5-9 3-3 7-5 12-6-7-7-11-15-13-22-3-7-4-14-4-20 0-11 4-21 11-28 8-7 17-10 27-10zm25 79c-2-1-3-7-4-16-2-10-3-17-3-21-1-4-3-9-6-13-3-5-8-7-15-7-5 1-10 3-13 7s-4 9-4 14 1 11 3 16 5 10 8 14c4 3 7 6 11 6h23z"/><path class="fil0 str0" d="M865 1574c117-133 235-265 353-398 89 60 178 119 267 178 204-210 408-421 612-631 40-41 33-48 68-1 249 326 499 652 748 978 36 47 51 46 22 99l-48 90c-54 98-41 91-147 55-37-13-74-25-111-38-541-149-1076-229-1635-61-124 37-172-38-20-104l144-51c198-55 386-84 589-106 289-6 587 0 870 58l42 3c-67-166-420-644-507-767-194 221-389 441-583 661l-315-246c-101 99-202 197-303 296-16 17-59 22-46-15z"/></g></g></svg>